<svg aria-hidden="true" style="position: absolute; width: 0; height: 0; overflow: hidden;" version="1.1" xmlns="http://www.w3.org/2000/svg" xmlns:xlink="http://www.w3.org/1999/xlink">
	<!-- Email -->
	<symbol id="icon-email" viewBox="0 0 32 32">
		<path d="M31.917 7.354a4.266 4.266 0 0 0-.916-1.891 4.034 4.034 0 0 0-.301-.326 4.496 4.496 0 0 0-3.139-1.266H4.439a4.499 4.499 0 0 0-3.44 1.592 4.217 4.217 0 0 0-.912 1.891 4.052 4.052 0 0 0-.087.84v15.818c0 .607.132 1.19.368 1.717.218.504.541.958.933 1.34a4.499 4.499 0 0 0 3.138 1.266h23.122a4.476 4.476 0 0 0 3.139-1.266c.391-.382.714-.836.937-1.34v-.004A4.189 4.189 0 0 0 32 24.012V8.194c0-.285-.029-.566-.083-.84Zm-29.01-.652c.396-.386.929-.62 1.532-.62h23.122a2.165 2.165 0 0 1 1.727.842L17.169 17.211a1.787 1.787 0 0 1-1.169.427c-.417 0-.83-.141-1.168-.427L2.717 6.919c.054-.076.12-.149.19-.217Zm-.636 17.31V9.208l8.77 7.453-8.766 7.444c-.004-.028-.004-.061-.004-.093Zm25.29 2.111H4.439c-.393 0-.76-.1-1.074-.277l9.249-7.851.863.732a3.91 3.91 0 0 0 2.523.922c.9 0 1.805-.31 2.527-.922l.863-.732 9.245 7.851a2.18 2.18 0 0 1-1.074.277Zm2.168-2.111c0 .032 0 .065-.004.093l-8.766-7.44 8.77-7.453v14.8Z" class="st0" />
	</symbol>
	<!-- TilTok -->
	<symbol id="icon-tiktok" viewBox="0 0 32 32">
		<path d="M11.319 29.57c-2.578-0.466-5.015-2.258-6.098-4.48-0.573-1.128-0.908-2.459-0.908-3.869 0-0.339 0.019-0.674 0.057-1.003l-0.004 0.040c0.343-3.067 1.931-5.577 4.398-6.958 1.301-0.729 3.163-1.090 4.551-0.885l0.8 0.119 0.002 2.45v2.455l-0.759-0.032c-1.829-0.075-3.191 0.709-3.895 2.235-0.336 0.731-0.421 2.032-0.183 2.823 0.29 0.978 1.154 1.861 2.194 2.247 0.357 0.133 0.741 0.183 1.399 0.181 0.821 0 0.971-0.030 1.547-0.302 0.834-0.395 1.442-0.967 1.801-1.694 0.231-0.473 0.306-0.784 0.379-1.591 0.048-0.549 0.091-5.056 0.091-10.011l0.007-9.010h1.561c0.859 0 1.893 0.027 2.295 0.062l0.731 0.062v0.361c0 0.873 0.51 2.544 1.033 3.387 0.13 0.21 0.585 0.725 1.013 1.145 0.823 0.814 1.52 1.225 2.59 1.531 0.315 0.091 0.649 0.203 0.741 0.249s0.263 0.087 0.382 0.087c0.119 0 0.313 0.027 0.432 0.059l0.215 0.057v4.546l-0.407-0.043c-2.194-0.238-3.954-0.823-5.353-1.787-0.697-0.48-0.757-0.507-0.69-0.325 0.023 0.066 0.007 2.571-0.039 5.568-0.075 5.195-0.091 5.486-0.293 6.21-0.775 2.793-2.514 4.869-4.802 5.73-1.401 0.526-3.193 0.67-4.786 0.382z">
		</path>
	</symbol>
	<!-- Phone -->
	<symbol id="icon-phone" viewBox="0 0 32 32">
		<path d="m20.836 19.326-.607.604s-1.444 1.435-5.384-2.483c-3.94-3.918-2.496-5.352-2.496-5.352l.381-.381c.943-.936 1.032-2.44.209-3.539l-1.68-2.244c-1.019-1.36-2.985-1.54-4.152-.38l-2.093 2.08c-.577.576-.964 1.32-.917 2.147.12 2.116 1.077 6.667 6.416 11.976 5.663 5.629 10.976 5.853 13.148 5.651.688-.064 1.285-.413 1.767-.893l1.893-1.883c1.28-1.271.92-3.451-.717-4.34l-2.547-1.385c-1.075-.584-2.383-.412-3.223.423l.002-.001Z" />
	</symbol>
	<!-- Map -->
	<symbol id="icon-map" viewBox="0 0 32 32">
		<path d="M15.995 0.996c-6.063 0-10.997 4.937-10.997 10.999 0 10.668 10.378 18.779 10.378 18.779 0.169 0.136 0.386 0.218 0.623 0.218s0.454-0.082 0.625-0.219l-0.002 0.002s10.379-8.111 10.379-18.779c0-6.063-4.944-10.999-11.006-10.999zM15.995 6.998c2.75 0 5.006 2.249 5.006 4.998s-2.256 5.004-5.006 5.004-4.998-2.254-4.998-5.004c0.008-2.757 2.241-4.99 4.997-4.998h0.001z">
		</path>
	</symbol>
	<!-- Facebook -->
	<symbol id="icon-facebook" viewBox="0 0 32 32">
		<path d="M18.914 32v-14.4h4.373l0.714-6.4h-5.086v-3.117c0-1.648 0.043-3.283 2.346-3.283h2.333v-4.576c0-0.069-2.005-0.224-4.032-0.224-4.232 0-6.882 2.651-6.882 7.52v3.68h-4.678v6.4h4.677v14.4h6.237z">
		</path>
	</symbol>
	<!-- Instagram -->
	<symbol id="icon-instagram" viewBox="0 0 32 32">
		<path d="M9.392 0.197c-2.605 0.117-4.864 0.754-6.688 2.57-1.827 1.824-2.456 4.091-2.574 6.669-0.070 1.608-0.499 13.762 0.742 16.949 0.84 2.145 2.508 3.81 4.601 4.626l0.055 0.019c1.014 0.394 2.17 0.659 3.866 0.738 14.176 0.642 19.432 0.293 21.648-5.382 0.394-1.010 0.664-2.165 0.739-3.856 0.648-14.213-0.106-17.294-2.576-19.762-1.962-1.955-4.267-3.286-19.813-2.57zM9.522 28.907c-1.552-0.069-2.394-0.328-2.957-0.546-1.395-0.539-2.479-1.619-3.009-2.977l-0.012-0.035c-0.946-2.422-0.632-13.925-0.547-15.786 0.082-1.824 0.451-3.488 1.738-4.776 1.592-1.587 3.65-2.366 17.654-1.734 1.827 0.083 3.498 0.451 4.787 1.734 1.592 1.589 2.382 3.661 1.739 17.613-0.070 1.549-0.33 2.389-0.547 2.949-1.442 3.693-4.757 4.205-18.846 3.558zM22.544 7.504c0 1.051 0.854 1.904 1.91 1.904s1.912-0.853 1.912-1.904c0-1.056-0.856-1.912-1.912-1.912s-1.912 0.856-1.912 1.912v0zM7.782 15.981c0.005 4.505 3.659 8.155 8.165 8.155 0.004 0 0.008 0 0.012 0h-0.001c0.003 0 0.006 0 0.010 0 4.506 0 8.159-3.65 8.165-8.155v-0.001c-0.005-4.504-3.658-8.154-8.163-8.154-0.005 0-0.009 0-0.014 0h0.001c-0.004 0-0.008 0-0.013 0-4.505 0-8.158 3.649-8.163 8.153v0.001zM10.651 15.981c0.005-2.924 2.376-5.293 5.301-5.293 0.001 0 0.002 0 0.003 0h-0c0.002 0 0.004 0 0.006 0 2.925 0 5.296 2.369 5.301 5.292v0c-0.003 2.926-2.375 5.296-5.301 5.296-0.002 0-0.005 0-0.007 0h0c-0.001 0-0.003 0-0.005 0-2.926 0-5.298-2.37-5.301-5.296v-0z">
		</path>
	</symbol>
	<!-- Arrow -->
	<symbol id="icon-arrow" viewBox="0 0 32 32">
		<path d="M31.289 24a2.423 2.423 0 0 0 0-3.429L19.426 8.721a4.848 4.848 0 0 0-6.857 0L.711 20.581a2.423 2.423 0 0 0 0 3.429 2.428 2.428 0 0 0 3.429 0l10.15-10.151a2.426 2.426 0 0 1 3.429 0L27.86 24a2.423 2.423 0 0 0 3.429 0Z" />
	</symbol>
</svg>
