<svg aria-hidden="true" style="position: absolute; width: 0; height: 0; overflow: hidden;" version="1.1" xmlns="http://www.w3.org/2000/svg" xmlns:xlink="http://www.w3.org/1999/xlink">
	<!-- Ескізи -->
	<symbol id="icon-sketch" viewBox="0 0 64 64">
		<path d="M64 39.468v-38.4C64 .428 63.572 0 62.932 0H1.068C.428 0 0 .428 0 1.068V51.2c0 .64.428 1.068 1.068 1.068h10.664v-2.136h-9.6v-48h59.736V38.4H51.2c-.64 0-1.068.428-1.068 1.068v10.664H26.668v2.136H51.2c.32 0 .532-.108.748-.32L63.68 40.212c.108-.104.108-.212.212-.32v-.104c.108-.108.108-.216.108-.32Zm-11.732 1.064h8.104l-4.052 4.056-4.052 4.052v-8.108Z" />
		<path d="M20.16 10.348a1.024 1.024 0 0 0-.96-.748c-.428 0-.852.32-.96.748l-3.092 9.28c-.108.212-.216.424-.216.64v42.664c0 .64.428 1.068 1.068 1.068h6.4c.64 0 1.068-.428 1.068-1.068V20.268c0-.216-.108-.536-.216-.64l-3.092-9.28Zm-3.092 10.984h1.064V54.4h-1.064V21.332Zm3.2 0h1.064V54.4h-1.064V21.332ZM19.2 14.08l1.708 5.12h-3.416l1.708-5.12Zm2.132 47.788h-4.264v-5.336h4.264v5.336ZM37.332 6.4a9.562 9.562 0 0 0-9.6 9.6v2.132h2.136V16a7.42 7.42 0 0 1 7.464-7.468A7.423 7.423 0 0 1 44.8 16v2.132h2.132V16a9.56 9.56 0 0 0-9.6-9.6Z" />
		<path d="M57.6 17.068v-2.136h-2.132v2.136A7.42 7.42 0 0 1 48 24.532a7.42 7.42 0 0 1-7.468-7.464v-2.136H38.4v2.136c0 5.332 4.268 9.6 9.6 9.6s9.6-4.268 9.6-9.6ZM26.668 35.2v10.668c0 .64.424 1.064 1.064 1.064H38.4c.64 0 1.068-.424 1.068-1.064V35.2c0-.64-.428-1.068-1.068-1.068H27.732c-.64 0-1.064.428-1.064 1.068Zm2.132 1.068h8.532V44.8H28.8v-8.532Z" />
		<path d="M41.6 37.332v2.136h2.132c.64 0 1.068-.428 1.068-1.068v-8.532c0-.64-.428-1.068-1.068-1.068H35.2c-.64 0-1.068.428-1.068 1.068V32h2.136v-1.068h6.4v6.4H41.6ZM6.4 5.332h2.132v2.132H6.4zM10.668 5.332H12.8v2.132h-2.132zM14.932 5.332h2.132v2.132h-2.132zM10.668 9.6H12.8v2.132h-2.132zM6.4 9.6h2.132v2.132H6.4zM6.4 13.868h2.132V16H6.4zM6.4 18.132h2.132v2.132H6.4zM6.4 22.4h2.132v2.132H6.4zM6.4 26.668h2.132V28.8H6.4zM6.4 30.932h2.132v2.132H6.4zM6.4 35.2h2.132v2.132H6.4zM6.4 39.468h2.132V41.6H6.4zM6.4 43.732h2.132v2.132H6.4z" />
	</symbol>
	<!-- Татуювання -->
	<symbol id="icon-tattoo" viewBox="0 0 64 64">
		<path d="m63.838 29.347-7.395-7.394a15.7 15.7 0 0 0 .755-3.395c.265-2.541-.246-4.655-1.476-6.162a2.29 2.29 0 0 0 .194-.857l1.75-.44.146.866a.556.556 0 0 0 .641.456l3.96-.669a.557.557 0 0 0 .457-.641l-.463-2.742a.562.562 0 0 0-.642-.457l-3.96.669a.555.555 0 0 0-.456.642l.13.774-1.795.452a2.273 2.273 0 0 0-.904-.975 2.302 2.302 0 0 0-3.469 2.079l-1.256.316.272 1.08 1.295-.326a2.266 2.266 0 0 0 1.002.921c.414.909-.015 2.725-.518 4.072l-7.42-7.42a.557.557 0 0 0-.787 0L27.034 27.06l-2.191-2.191a.556.556 0 0 0-.787 0l-.627.625-.596-.596 1.864-1.863a.557.557 0 0 0 0-.787l-1.784-1.784a.555.555 0 0 0-.787 0l-4.515 4.514a.555.555 0 0 0 0 .787l1.783 1.785a.556.556 0 0 0 .789 0l1.863-1.864.596.597-.626.625a.557.557 0 0 0 0 .787l1.026 1.026-3.376 3.376-.407-.406a.547.547 0 0 0-.426-.162l-2.317.132a.554.554 0 0 0-.361.163l-9.394 9.393a.55.55 0 0 0-.163.362l-.133 2.318a.56.56 0 0 0 .162.425l.481.48-2.651 2.652a.566.566 0 0 0-.142.59 1.406 1.406 0 0 1-.321 1.475 1.392 1.392 0 0 1-1.427.338.557.557 0 0 0-.662.264L.62 52.487a.556.556 0 0 0 .096.659l.335.335-.888.887a.557.557 0 0 0 .787.788l.888-.887.48.48a.555.555 0 0 0 .788 0l6.974-6.975.475.476c.11.109.259.172.413.167h.018l2.318-.133a.558.558 0 0 0 .361-.162l9.393-9.394a.549.549 0 0 0 .162-.362l.134-2.318a.558.558 0 0 0-.162-.425l-.407-.407 3.376-3.376 1.025 1.026a.561.561 0 0 0 .789 0l2.038-2.039a.555.555 0 0 0 0-.787l-2.191-2.191.232-.233 18.758 18.759a.561.561 0 0 0 .787 0l16.239-16.239a.56.56 0 0 0 0-.789ZM61.402 9.104l.277 1.644-2.863.483-.277-1.644 2.863-.483ZM19.789 26.369l-.997-.997 3.728-3.727.996.996-3.727 3.728ZM2.711 53.567l-.914-.914.887-1.632a2.503 2.503 0 0 0 2.097-.715c.599-.6.85-1.465.682-2.284l2.431-2.432 1.398 1.397-6.581 6.58Zm19.411-15.476-9.095 9.093-1.856.107-3.58-3.58.107-1.856 9.094-9.094 1.857-.107 3.578 3.58-.105 1.857Zm-.125-3.662-1.544-1.545 3.376-3.376 1.544 1.544-3.376 3.377Zm5.583-2.745-4.382-4.383 1.251-1.251 4.383 4.383-1.252 1.251ZM52.769 10.62c.233-.234.539-.35.844-.35a1.196 1.196 0 0 1 .845 2.038 1.197 1.197 0 0 1-1.689 0 1.196 1.196 0 0 1 0-1.688Zm.821 5.998c.305-1.15.389-2.107.253-2.86a2.288 2.288 0 0 0 1.171-.463c1.813 2.462 1.026 6.144.542 7.771l-2.593-2.595c.161-.394.42-1.076.627-1.853Zm3.023 13.05-9.481 9.481-5.256-5.257 9.48-9.48 5.257 5.256Zm-11.739 8.797-.596.597-2.315-2.315.596-.596 2.315 2.314Zm.787.787 1.077 1.078a.561.561 0 0 0 .788 0l10.268-10.268a.557.557 0 0 0 0-.787l-1.078-1.078.596-.596 1.776 1.776-12.247 12.248-1.776-1.776.596-.597ZM55.929 27.41l-2.315-2.314.597-.597 2.314 2.315-.596.596Zm-3.102-3.102-1.077-1.077a.557.557 0 0 0-.787 0L40.695 33.499a.555.555 0 0 0 0 .787l1.077 1.077-.596.597-4.048-4.048.596-.597 1.077 1.078a.561.561 0 0 0 .788 0l10.267-10.268a.558.558 0 0 0 0-.787l-1.077-1.078.596-.596 4.048 4.048-.596.596Zm-4.151-2.577-9.481 9.481-5.257-5.258 9.48-9.479 5.258 5.256Zm-11.739 8.797-.596.596-2.315-2.314.596-.597 2.315 2.315Zm11.055-11.055-2.315-2.315.596-.596 2.315 2.315-.596.596Zm-3.102-3.102-1.077-1.077a.556.556 0 0 0-.788 0L32.758 25.562a.555.555 0 0 0 0 .787l1.077 1.077-.596.595-2.796-2.794L42.69 12.979l2.796 2.796-.596.596Zm2.316 28.822L28.841 26.829l.815-.815 16.791 16.792a.556.556 0 0 0 .787 0l13.035-13.035a.555.555 0 0 0 0-.787L43.478 12.192l.815-.815 18.363 18.364-15.45 15.452Z" />
	</symbol>
	<!-- Корекція -->
	<symbol id="icon-refresh" viewBox="0 0 64 64">
		<path d="M55.162 52.981a29.969 29.969 0 0 0 1.929-2.072.914.914 0 0 0-.109-1.291.918.918 0 0 0-1.291.108 28.184 28.184 0 0 1-1.809 1.946.913.913 0 0 0 .64 1.57.9.9 0 0 0 .64-.261ZM16.126 54.669a.894.894 0 0 0 .578.208.914.914 0 0 0 .58-1.624 27.63 27.63 0 0 1-4.021-4.063.915.915 0 1 0-1.43 1.143 29.527 29.527 0 0 0 4.293 4.336ZM49.395 55.219a27.395 27.395 0 0 1-5.122 2.542.919.919 0 0 0-.539 1.181.921.921 0 0 0 1.179.539 29.57 29.57 0 0 0 5.462-2.713.917.917 0 0 0-.98-1.549ZM26.895 60.255a.919.919 0 0 0 1.126-.638.917.917 0 0 0-.64-1.127 27.176 27.176 0 0 1-5.323-2.088.914.914 0 0 0-1.234.391.918.918 0 0 0 .391 1.235 29.25 29.25 0 0 0 5.68 2.227ZM33.024 59.428c-.505-.045-.94.353-.969.86a.915.915 0 0 0 .859.967 29.882 29.882 0 0 0 6.093-.26.919.919 0 0 0 .772-1.04.926.926 0 0 0-1.039-.775 28.143 28.143 0 0 1-5.716.248ZM9.326 45.661a.919.919 0 0 0 .819-1.327 27.012 27.012 0 0 1-1.077-2.423.91.91 0 0 0-1.183-.523.918.918 0 0 0-.525 1.185c.342.879.728 1.75 1.147 2.582a.917.917 0 0 0 .819.506ZM34.701 2.703c-15.506 0-28.2 12.114-29.206 27.366l-3.862-4.877a.915.915 0 1 0-1.435 1.134l5.5 6.947a.915.915 0 0 0 1.286.15l6.948-5.499a.919.919 0 0 0 .152-1.287.917.917 0 0 0-1.289-.148l-5.508 4.359C7.9 16.238 19.944 4.535 34.701 4.535c15.146 0 27.47 12.323 27.47 27.469 0 4.456-1.088 8.877-3.149 12.785a.918.918 0 0 0 .807 1.344.917.917 0 0 0 .812-.49A29.358 29.358 0 0 0 64 32.004C64.003 15.85 50.858 2.703 34.701 2.703Z" />
		<path d="M34.748 12.775a.917.917 0 0 0-.916.916v12.774c-2.691.421-4.761 2.734-4.761 5.539a5.633 5.633 0 0 0 5.628 5.628c1.788 0 3.363-.852 4.396-2.156l9.803 5.579a.915.915 0 1 0 .905-1.593l-9.821-5.588c.21-.59.342-1.212.342-1.87 0-2.772-2.019-5.069-4.663-5.53V13.691a.913.913 0 0 0-.913-.916Zm3.747 19.229a3.8 3.8 0 0 1-3.796 3.798 3.799 3.799 0 0 1-3.796-3.798 3.8 3.8 0 0 1 3.796-3.796 3.8 3.8 0 0 1 3.796 3.796Z" />
	</symbol>
	<!-- Консультації -->
	<symbol id="icon-chat" viewBox="0 0 64 64">
		<path d="M30.098 11.095H6.126C2.74 11.095 0 13.854 0 17.221v16.266a6.156 6.156 0 0 0 5.669 6.126v4.471c0 .571.343 1.104.876 1.313.171.076.361.114.551.114.381 0 .742-.152 1.009-.418l5.46-5.461h14.173v2.074a6.154 6.154 0 0 0 6.145 6.145h16.552l5.46 5.46c.267.267.647.419 1.009.419.19 0 .361-.038.551-.114a1.43 1.43 0 0 0 .876-1.313v-4.49C61.489 47.566 64 44.921 64 41.687V25.421a6.154 6.154 0 0 0-6.145-6.145H36.243v-2.074c0-3.367-2.759-6.107-6.145-6.107ZM12.956 36.779c-.38 0-.742.152-1.008.418l-3.444 3.444v-2.435c0-.78-.647-1.427-1.427-1.427h-.951a3.272 3.272 0 0 1-3.272-3.273V17.24a3.272 3.272 0 0 1 3.272-3.272h23.972a3.272 3.272 0 0 1 3.272 3.272v16.266a3.272 3.272 0 0 1-3.272 3.273H12.956Zm44.88-14.63a3.292 3.292 0 0 1 3.291 3.291v16.266a3.293 3.293 0 0 1-3.291 3.292h-.951c-.78 0-1.427.646-1.427 1.426v2.436l-3.444-3.444a1.426 1.426 0 0 0-1.008-.418H33.864a3.293 3.293 0 0 1-3.291-3.292v-2.093c3.158-.247 5.651-2.891 5.651-6.107V22.168h21.612v-.019Z" />
		<path d="M18.15 31.09a1.425 1.425 0 0 0-1.427 1.427 1.425 1.425 0 1 0 2.435-1.008 1.423 1.423 0 0 0-1.008-.419ZM18.112 16.783a4.438 4.438 0 0 0-4.433 4.433v.095c0 .78.647 1.427 1.427 1.427s1.427-.647 1.427-1.427v-.095c0-.856.704-1.579 1.579-1.579s1.579.704 1.579 1.579c0 .837-.324 1.617-.913 2.207a6.92 6.92 0 0 0-2.036 4.928c0 .78.647 1.427 1.427 1.427s1.427-.647 1.427-1.427a4.07 4.07 0 0 1 1.198-2.911 5.945 5.945 0 0 0 1.751-4.224 4.438 4.438 0 0 0-4.433-4.433Z" />
	</symbol>
	<!-- Email -->
	<symbol id="icon-email" viewBox="0 0 32 32">
		<path d="M31.917 7.354a4.266 4.266 0 0 0-.916-1.891 4.034 4.034 0 0 0-.301-.326 4.496 4.496 0 0 0-3.139-1.266H4.439a4.499 4.499 0 0 0-3.44 1.592 4.217 4.217 0 0 0-.912 1.891 4.052 4.052 0 0 0-.087.84v15.818c0 .607.132 1.19.368 1.717.218.504.541.958.933 1.34a4.499 4.499 0 0 0 3.138 1.266h23.122a4.476 4.476 0 0 0 3.139-1.266c.391-.382.714-.836.937-1.34v-.004A4.189 4.189 0 0 0 32 24.012V8.194c0-.285-.029-.566-.083-.84Zm-29.01-.652c.396-.386.929-.62 1.532-.62h23.122a2.165 2.165 0 0 1 1.727.842L17.169 17.211a1.787 1.787 0 0 1-1.169.427c-.417 0-.83-.141-1.168-.427L2.717 6.919c.054-.076.12-.149.19-.217Zm-.636 17.31V9.208l8.77 7.453-8.766 7.444c-.004-.028-.004-.061-.004-.093Zm25.29 2.111H4.439c-.393 0-.76-.1-1.074-.277l9.249-7.851.863.732a3.91 3.91 0 0 0 2.523.922c.9 0 1.805-.31 2.527-.922l.863-.732 9.245 7.851a2.18 2.18 0 0 1-1.074.277Zm2.168-2.111c0 .032 0 .065-.004.093l-8.766-7.44 8.77-7.453v14.8Z" class="st0" />
	</symbol>
	<!-- TilTok -->
	<symbol id="icon-tiktok" viewBox="0 0 32 32">
		<path d="M11.319 29.57c-2.578-0.466-5.015-2.258-6.098-4.48-0.573-1.128-0.908-2.459-0.908-3.869 0-0.339 0.019-0.674 0.057-1.003l-0.004 0.040c0.343-3.067 1.931-5.577 4.398-6.958 1.301-0.729 3.163-1.090 4.551-0.885l0.8 0.119 0.002 2.45v2.455l-0.759-0.032c-1.829-0.075-3.191 0.709-3.895 2.235-0.336 0.731-0.421 2.032-0.183 2.823 0.29 0.978 1.154 1.861 2.194 2.247 0.357 0.133 0.741 0.183 1.399 0.181 0.821 0 0.971-0.030 1.547-0.302 0.834-0.395 1.442-0.967 1.801-1.694 0.231-0.473 0.306-0.784 0.379-1.591 0.048-0.549 0.091-5.056 0.091-10.011l0.007-9.010h1.561c0.859 0 1.893 0.027 2.295 0.062l0.731 0.062v0.361c0 0.873 0.51 2.544 1.033 3.387 0.13 0.21 0.585 0.725 1.013 1.145 0.823 0.814 1.52 1.225 2.59 1.531 0.315 0.091 0.649 0.203 0.741 0.249s0.263 0.087 0.382 0.087c0.119 0 0.313 0.027 0.432 0.059l0.215 0.057v4.546l-0.407-0.043c-2.194-0.238-3.954-0.823-5.353-1.787-0.697-0.48-0.757-0.507-0.69-0.325 0.023 0.066 0.007 2.571-0.039 5.568-0.075 5.195-0.091 5.486-0.293 6.21-0.775 2.793-2.514 4.869-4.802 5.73-1.401 0.526-3.193 0.67-4.786 0.382z">
		</path>
	</symbol>
	<!-- Phone -->
	<symbol id="icon-phone" viewBox="0 0 32 32">
		<path d="m20.836 19.326-.607.604s-1.444 1.435-5.384-2.483c-3.94-3.918-2.496-5.352-2.496-5.352l.381-.381c.943-.936 1.032-2.44.209-3.539l-1.68-2.244c-1.019-1.36-2.985-1.54-4.152-.38l-2.093 2.08c-.577.576-.964 1.32-.917 2.147.12 2.116 1.077 6.667 6.416 11.976 5.663 5.629 10.976 5.853 13.148 5.651.688-.064 1.285-.413 1.767-.893l1.893-1.883c1.28-1.271.92-3.451-.717-4.34l-2.547-1.385c-1.075-.584-2.383-.412-3.223.423l.002-.001Z" />
	</symbol>
	<!-- Map -->
	<symbol id="icon-map" viewBox="0 0 32 32">
		<path d="M15.995 0.996c-6.063 0-10.997 4.937-10.997 10.999 0 10.668 10.378 18.779 10.378 18.779 0.169 0.136 0.386 0.218 0.623 0.218s0.454-0.082 0.625-0.219l-0.002 0.002s10.379-8.111 10.379-18.779c0-6.063-4.944-10.999-11.006-10.999zM15.995 6.998c2.75 0 5.006 2.249 5.006 4.998s-2.256 5.004-5.006 5.004-4.998-2.254-4.998-5.004c0.008-2.757 2.241-4.99 4.997-4.998h0.001z">
		</path>
	</symbol>
	<!-- Facebook -->
	<symbol id="icon-facebook" viewBox="0 0 32 32">
		<path d="M18.914 32v-14.4h4.373l0.714-6.4h-5.086v-3.117c0-1.648 0.043-3.283 2.346-3.283h2.333v-4.576c0-0.069-2.005-0.224-4.032-0.224-4.232 0-6.882 2.651-6.882 7.52v3.68h-4.678v6.4h4.677v14.4h6.237z">
		</path>
	</symbol>
	<!-- Instagram -->
	<symbol id="icon-instagram" viewBox="0 0 32 32">
		<path d="M9.392 0.197c-2.605 0.117-4.864 0.754-6.688 2.57-1.827 1.824-2.456 4.091-2.574 6.669-0.070 1.608-0.499 13.762 0.742 16.949 0.84 2.145 2.508 3.81 4.601 4.626l0.055 0.019c1.014 0.394 2.17 0.659 3.866 0.738 14.176 0.642 19.432 0.293 21.648-5.382 0.394-1.010 0.664-2.165 0.739-3.856 0.648-14.213-0.106-17.294-2.576-19.762-1.962-1.955-4.267-3.286-19.813-2.57zM9.522 28.907c-1.552-0.069-2.394-0.328-2.957-0.546-1.395-0.539-2.479-1.619-3.009-2.977l-0.012-0.035c-0.946-2.422-0.632-13.925-0.547-15.786 0.082-1.824 0.451-3.488 1.738-4.776 1.592-1.587 3.65-2.366 17.654-1.734 1.827 0.083 3.498 0.451 4.787 1.734 1.592 1.589 2.382 3.661 1.739 17.613-0.070 1.549-0.33 2.389-0.547 2.949-1.442 3.693-4.757 4.205-18.846 3.558zM22.544 7.504c0 1.051 0.854 1.904 1.91 1.904s1.912-0.853 1.912-1.904c0-1.056-0.856-1.912-1.912-1.912s-1.912 0.856-1.912 1.912v0zM7.782 15.981c0.005 4.505 3.659 8.155 8.165 8.155 0.004 0 0.008 0 0.012 0h-0.001c0.003 0 0.006 0 0.010 0 4.506 0 8.159-3.65 8.165-8.155v-0.001c-0.005-4.504-3.658-8.154-8.163-8.154-0.005 0-0.009 0-0.014 0h0.001c-0.004 0-0.008 0-0.013 0-4.505 0-8.158 3.649-8.163 8.153v0.001zM10.651 15.981c0.005-2.924 2.376-5.293 5.301-5.293 0.001 0 0.002 0 0.003 0h-0c0.002 0 0.004 0 0.006 0 2.925 0 5.296 2.369 5.301 5.292v0c-0.003 2.926-2.375 5.296-5.301 5.296-0.002 0-0.005 0-0.007 0h0c-0.001 0-0.003 0-0.005 0-2.926 0-5.298-2.37-5.301-5.296v-0z">
		</path>
	</symbol>
	<!-- Arrow -->
	<symbol id="icon-arrow" viewBox="0 0 32 32">
		<path d="M31.289 24a2.423 2.423 0 0 0 0-3.429L19.426 8.721a4.848 4.848 0 0 0-6.857 0L.711 20.581a2.423 2.423 0 0 0 0 3.429 2.428 2.428 0 0 0 3.429 0l10.15-10.151a2.426 2.426 0 0 1 3.429 0L27.86 24a2.423 2.423 0 0 0 3.429 0Z" />
	</symbol>
</svg>
