<svg xmlns="http://www.w3.org/2000/svg" fill="#eaeaea" viewBox="0 0 200 200">
	<path d="M116.343 66.725c-1.992 0-3.911.316-5.713.896V34.972c0-10.31-8.388-18.698-18.697-18.698a18.6 18.6 0 0 0-5.779.919C85.383 7.585 77.324 0 67.52 0c-9.802 0-17.861 7.585-18.631 17.193a18.61 18.61 0 0 0-5.78-.919c-10.31 0-18.698 8.388-18.698 18.698v6.61a18.609 18.609 0 0 0-5.713-.896C8.388 40.686 0 49.073 0 59.383v73.096C0 169.71 30.29 200 67.521 200s67.52-30.29 67.52-67.52V85.422c0-10.309-8.388-18.697-18.698-18.697Zm4.215 77.778c-1.351 5.957-3.534 11.585-6.661 16.629-4.134-1.864-6.275-6.606-4.811-10.998 1.562-4.688 6.785-7.191 11.472-5.631ZM101.486 175.1c-5.504-3.249-9.596-8.263-11.776-14.042h11.753a18.035 18.035 0 0 0 6.947 7.45 54.973 54.973 0 0 1-6.924 6.592Zm-13.55-23.131a27.243 27.243 0 0 1 1.406-9.348 27.424 27.424 0 0 1 7.071-11.17l.031.035 8.555 8.555a17.951 17.951 0 0 0-5.431 11.928H87.936Zm25.33-16.517-9.192-9.192a27.487 27.487 0 0 1 17.983-1.714s-.032 9.928-.085 10.917a17.923 17.923 0 0 0-8.706-.011ZM12.985 119.03c22.816 0 41.64 18.563 41.64 41.379a41.383 41.383 0 0 1-6.901 22.871 54.63 54.63 0 0 1-17.881-11.429 19.838 19.838 0 0 0 3.592-11.378c0-10.934-8.893-19.827-19.825-19.827l-.012.001a54.726 54.726 0 0 1-.613-8.167v-13.45Zm2.898 30.954c4.831 1.046 8.464 5.348 8.464 10.489 0 1.437-.298 2.845-.845 4.151a54.464 54.464 0 0 1-7.619-14.64Zm51.637 37.031c-5.031 0-10.743-1.067-10.743-1.067a50.49 50.49 0 0 0 6.937-25.538c0-27.828-22.901-50.469-50.729-50.469V65.675c.287.168.617.27.972.27a1.944 1.944 0 0 0 1.948-1.947 1.945 1.945 0 0 0-1.948-1.947c-.356 0-.685.103-.972.27v-2.936a5.72 5.72 0 0 1 5.713-5.713 5.72 5.72 0 0 1 5.713 5.713v2.673c-.023-.001-.043-.007-.066-.007a1.949 1.949 0 0 0-1.948 1.947c0 1.078.877 1.947 1.948 1.947.023 0 .043-.006.066-.006v20.457a6.493 6.493 0 0 0 12.985 0V44.511c.032.001.062.009.096.009a1.944 1.944 0 0 0 1.947-1.947c0-1.079-.87-1.947-1.947-1.947-.034 0-.064.008-.096.009v-5.663a5.72 5.72 0 0 1 5.713-5.713 5.72 5.72 0 0 1 5.713 5.713v5.905a1.926 1.926 0 0 0-.942-.252 1.944 1.944 0 0 0-1.948 1.948c0 1.078.87 1.947 1.948 1.947.344 0 .662-.096.942-.253v34.506a6.493 6.493 0 0 0 12.985 0V31.175c.116.021.234.036.355.036 1.079 0 1.948-.87 1.948-1.948a1.944 1.944 0 0 0-2.303-1.912v-8.653a5.72 5.72 0 0 1 5.713-5.713 5.72 5.72 0 0 1 5.713 5.713v8.747a1.933 1.933 0 0 0-.683-.129 1.949 1.949 0 0 0 0 3.895c.242 0 .47-.049.683-.129v47.692a6.493 6.493 0 0 0 12.985 0V44.042c.341.295.781.478 1.265.478a1.944 1.944 0 0 0 1.947-1.947 1.944 1.944 0 0 0-1.947-1.947c-.484 0-.924.184-1.265.478v-6.131a5.72 5.72 0 0 1 5.713-5.713 5.719 5.719 0 0 1 5.713 5.713v5.676a1.94 1.94 0 0 0-1.721 1.924c0 1 .756 1.812 1.721 1.924v62.35a6.493 6.493 0 0 0 12.985 0v-8.981c.265.133.559.217.874.217a1.946 1.946 0 0 0 1.949-1.949 1.947 1.947 0 0 0-1.949-1.947c-.315 0-.609.083-.874.217v-8.982a5.72 5.72 0 0 1 5.713-5.713 5.72 5.72 0 0 1 5.713 5.713v8.782c-.054-.005-.107-.017-.163-.017a1.945 1.945 0 0 0-1.948 1.947c0 1.078.87 1.949 1.948 1.949.056 0 .108-.013.163-.017v17.183c-7.769-1.425-15.752-.307-22.941 3.287-8.765 4.383-15.297 11.914-18.394 21.209-5.085 15.255.456 31.528 12.58 40.778-7.682 4.138-15.553 6.492-25.78 6.492Z" />
	<path d="M25.748 100.822a3.247 3.247 0 1 0-.461 6.46 3.245 3.245 0 0 0 3.207-2.779 3.251 3.251 0 0 0-2.746-3.681ZM17.514 100.238a3.248 3.248 0 0 0-3.246 3.246 3.257 3.257 0 0 0 3.252 3.247 3.258 3.258 0 0 0 3.248-3.253 3.249 3.249 0 0 0-3.254-3.24ZM33.811 102.607a3.25 3.25 0 0 0-4.045 2.175 3.25 3.25 0 0 0 3.116 4.18 3.242 3.242 0 0 0 3.104-2.317 3.241 3.241 0 0 0-2.175-4.038ZM70.129 147.71a3.248 3.248 0 0 0-2.877 3.577 3.24 3.24 0 0 0 3.22 2.896c.118 0 .234-.007.352-.013a3.254 3.254 0 0 0 2.882-3.577 3.25 3.25 0 0 0-3.577-2.883ZM68.266 140.14a3.25 3.25 0 0 0 .811 6.394c.273 0 .545-.038.818-.11a3.246 3.246 0 0 0 2.33-3.954 3.252 3.252 0 0 0-3.959-2.33ZM69.369 170.965a3.243 3.243 0 0 0-3.992 2.267 3.246 3.246 0 1 0 3.992-2.267ZM60.988 120.598a3.25 3.25 0 0 0-4.571-.422 3.253 3.253 0 0 0-.416 4.578 3.255 3.255 0 0 0 2.493 1.168 3.244 3.244 0 0 0 2.494-5.324ZM55.262 114.658v-.007a3.246 3.246 0 0 0-4.584.254 3.252 3.252 0 0 0 .247 4.584c.623.557 1.395.83 2.168.83.89 0 1.779-.363 2.422-1.078a3.246 3.246 0 0 0-.253-4.583ZM65.792 127.311a3.244 3.244 0 0 0-4.461-1.078 3.235 3.235 0 0 0-1.078 4.461c.61 1 1.675 1.552 2.773 1.552.578 0 1.154-.149 1.687-.474a3.249 3.249 0 0 0 1.079-4.461ZM41.53 105.555a3.245 3.245 0 1 0-2.76 5.875 3.18 3.18 0 0 0 1.377.312c1.22 0 2.389-.695 2.947-1.869a3.248 3.248 0 0 0-1.564-4.318ZM66.578 139.167a3.251 3.251 0 0 0 2.986-4.52 3.25 3.25 0 0 0-4.253-1.72 3.242 3.242 0 0 0-1.719 4.258 3.251 3.251 0 0 0 2.986 1.982ZM70.85 155.475a3.24 3.24 0 0 0-3.338 3.149 3.246 3.246 0 0 0 3.156 3.336h.091a3.243 3.243 0 0 0 .091-6.485ZM67.213 178.458a3.246 3.246 0 0 0-4.232 1.773 3.246 3.246 0 0 0 1.778 4.233c.403.168.819.247 1.228.247a3.253 3.253 0 0 0 3.006-2.02 3.24 3.24 0 0 0-1.78-4.233ZM48.731 109.607a3.245 3.245 0 1 0-1.799 5.947 3.244 3.244 0 0 0 1.799-5.947ZM70.564 163.266a3.24 3.24 0 0 0-3.675 2.746 3.241 3.241 0 0 0 2.747 3.674c.156.027.311.039.467.039a3.256 3.256 0 0 0 3.214-2.785h-.006a3.241 3.241 0 0 0-2.747-3.674ZM41.946 153.677a4.55 4.55 0 0 0-4.077 4.972 4.55 4.55 0 0 0 4.518 4.097c.149 0 .305-.006.454-.026a4.538 4.538 0 0 0 4.071-4.973v.007a4.543 4.543 0 0 0-4.966-4.077ZM36.433 142.165a4.55 4.55 0 0 0-1.778 6.181h.006a4.53 4.53 0 0 0 3.98 2.344c.741 0 1.5-.182 2.194-.571a4.536 4.536 0 0 0 1.772-6.174h.006a4.547 4.547 0 0 0-6.18-1.78ZM33.22 132.959a4.54 4.54 0 0 0-6.376.786 4.546 4.546 0 0 0 3.577 7.343 4.546 4.546 0 0 0 2.799-8.129ZM42.471 166.434a4.545 4.545 0 0 0-5.7 2.974h.006a4.537 4.537 0 0 0 2.974 5.694c.448.142.91.214 1.357.214a4.554 4.554 0 0 0 4.338-3.188 4.537 4.537 0 0 0-2.975-5.694ZM20.261 126.539a4.546 4.546 0 1 0-1.15 8.946 4.563 4.563 0 0 0 4.397-3.395 4.55 4.55 0 0 0-3.247-5.551ZM88.944 107.172a4.546 4.546 0 0 0 4.545-4.545 4.546 4.546 0 0 0-9.09 0 4.55 4.55 0 0 0 4.545 4.545ZM81.154 102.627a4.546 4.546 0 0 0-9.09 0 4.55 4.55 0 0 0 4.545 4.545 4.546 4.546 0 0 0 4.545-4.545ZM64.274 107.172a4.546 4.546 0 1 0-4.546-4.545 4.55 4.55 0 0 0 4.546 4.545ZM19.151 62.05c-1.079 0-1.947.87-1.947 1.947 0 1.078.869 1.948 1.947 1.948s1.947-.87 1.947-1.948a1.944 1.944 0 0 0-1.947-1.947ZM42.686 44.52a1.944 1.944 0 0 0 1.948-1.947 1.948 1.948 0 1 0-1.948 1.947ZM92.677 44.52a1.943 1.943 0 0 0 1.947-1.947 1.943 1.943 0 0 0-1.947-1.947 1.944 1.944 0 0 0-1.947 1.947 1.943 1.943 0 0 0 1.947 1.947ZM116.699 98.083a1.945 1.945 0 0 0 1.947-1.949 1.945 1.945 0 0 0-1.947-1.947 1.949 1.949 0 0 0 0 3.896ZM67.357 31.211c1.078 0 1.948-.87 1.948-1.948a1.945 1.945 0 0 0-1.948-1.947 1.95 1.95 0 0 0-1.948 1.947 1.95 1.95 0 0 0 1.948 1.948Z" />
</svg>
