<svg xmlns="http://www.w3.org/2000/svg" width="300" height="300">
	<defs>
		<pattern id="tattooPattern" patternUnits="userSpaceOnUse" width="150" height="150">
			<!-- skull -->
			<g transform="scale(0.08)" style="opacity: 0.3; fill: #222;">
				<path d="M162.825,279.521c3.819,3.82,8.898,5.924,14.301,5.924c4.158,0,8.125-1.247,11.473-3.563 c3.349,2.316,7.315,3.563,11.474,3.563c5.402,0,10.481-2.104,14.301-5.924c3.82-3.82,5.925-8.899,5.925-14.302 s-2.104-10.481-5.925-14.302l-10.511-10.511c-4.077-4.077-9.498-6.322-15.264-6.322s-11.187,2.246-15.263,6.322l-10.511,10.511 c-3.82,3.82-5.925,8.899-5.925,14.302S159.005,275.701,162.825,279.521z M168.481,256.575l10.511-10.511 c2.566-2.566,5.978-3.979,9.606-3.979s7.041,1.414,9.607,3.979l10.511,10.511c2.309,2.309,3.581,5.379,3.581,8.645 s-1.272,6.335-3.581,8.645c-2.31,2.309-5.379,3.581-8.645,3.581s-6.336-1.272-8.646-3.581c-0.75-0.75-1.768-1.171-2.828-1.171 s-2.078,0.421-2.828,1.172c-2.31,2.309-5.379,3.581-8.645,3.581s-6.335-1.272-8.645-3.581c-2.309-2.309-3.581-5.379-3.581-8.645 S166.173,258.884,168.481,256.575z">
				</path>
				<path d="M149.008,261.16c1.672-3.482,2.678-7.184,2.989-11.004c0.475-5.81,1.859-10.899,4.116-15.126 c0.743-1.391,1.39-2.856,1.921-4.354c5.072-14.284-1.124-30.578-14.413-37.9c-7.66-4.22-16.448-5.081-24.747-2.424 c-8.184,2.62-15.01,8.563-18.727,16.307c-1.672,3.482-2.678,7.184-2.989,11.004c-0.475,5.811-1.859,10.9-4.116,15.127 c-0.743,1.392-1.39,2.856-1.921,4.354c-5.072,14.284,1.124,30.578,14.413,37.9c4.742,2.613,9.916,3.938,15.141,3.938 c3.213,0,6.445-0.501,9.606-1.514C138.465,274.848,145.291,268.904,149.008,261.16z M109.395,268.036 c-9.896-5.453-14.512-17.584-10.735-28.218c0.398-1.123,0.883-2.22,1.438-3.262c2.775-5.198,4.469-11.336,5.032-18.244 c0.232-2.841,0.981-5.598,2.229-8.193c2.81-5.854,7.766-10.169,13.953-12.15c2.354-0.754,4.76-1.127,7.154-1.127 c3.895,0,7.755,0.989,11.293,2.938c9.896,5.453,14.512,17.583,10.735,28.218c-0.399,1.124-0.883,2.222-1.438,3.262c0,0,0,0,0,0 c-2.775,5.198-4.469,11.336-5.032,18.243c-0.232,2.841-0.981,5.598-2.229,8.193c-2.81,5.854-7.766,10.169-13.954,12.15 C121.66,271.828,115.107,271.184,109.395,268.036z">
				</path>
				<path d="M221.085,235.029c2.257,4.227,3.642,9.316,4.116,15.127c0.312,3.82,1.317,7.522,2.988,11.004 c3.718,7.744,10.544,13.688,18.728,16.308c3.161,1.012,6.393,1.514,9.606,1.514c5.224,0,10.399-1.325,15.141-3.938 c13.289-7.323,19.485-23.617,14.413-37.899c-0.531-1.499-1.178-2.963-1.921-4.355c-2.257-4.226-3.642-9.315-4.116-15.128 c-0.313-3.823-1.318-7.524-2.988-11.003c-3.718-7.744-10.544-13.688-18.728-16.307c-8.298-2.657-17.086-1.796-24.747,2.424 c-13.289,7.323-19.485,23.616-14.413,37.902C219.697,232.176,220.344,233.641,221.085,235.029z M237.438,199.781 c3.538-1.95,7.398-2.938,11.293-2.938c2.394,0,4.801,0.374,7.154,1.127c6.188,1.98,11.144,6.296,13.954,12.15 c1.245,2.593,1.994,5.35,2.228,8.193c0.563,6.909,2.257,13.047,5.032,18.244c0.556,1.041,1.04,2.138,1.438,3.262 c3.776,10.633-0.839,22.764-10.735,28.217c-5.711,3.148-12.264,3.792-18.446,1.812c-6.188-1.981-11.145-6.296-13.955-12.151 c-1.246-2.595-1.995-5.352-2.228-8.193c-0.563-6.907-2.257-13.045-5.032-18.243c0,0,0,0,0,0c-0.555-1.039-1.039-2.137-1.439-3.263 C222.927,217.365,227.542,205.234,237.438,199.781z">
				</path>
				<path d="M371.708,362.032c-18.597-10.054-30.028-8.812-33.104-3.119c-0.005,0.009-11.734,21.707-11.734,21.707l-28.296-15.297 c-1.942-1.051-4.37-0.326-5.421,1.616l-1.12,2.073l-22.613-12.226v-40.722h27.26c23.881,0,43.31-19.429,43.31-43.31 c0-7.195-1.803-14.318-5.212-20.594c-2.837-5.242-6.761-9.875-11.443-13.537c3.453-12.746,5.079-25.913,4.835-39.182 c-0.509-27.975-9.346-54.866-25.556-77.766c-15.165-21.423-35.778-38.019-59.758-48.199c0.426-3.016,0.098-5.812-1.013-8.357 c0,0-15.639-53.722-15.649-53.74C221.312,1.282,205.806-2.19,181.31,1.342c-22.783,3.286-50.825,12.309-78.963,25.407 C74.211,39.848,49.254,55.498,32.072,70.815c-18.595,16.579-25.9,30.76-21.127,41.012c0.587,1.26,30.958,46.361,30.958,46.361 c2.026,4.096,5.933,7.01,11.565,8.731c-2.954,11.421-4.46,23.204-4.46,35.093c0,12.392,1.636,24.692,4.865,36.607 c-10.479,8.176-16.655,20.73-16.655,34.133c0,11.561,4.503,22.438,12.682,30.628c8.179,8.178,19.052,12.682,30.618,12.682h27.26 v47.9c0,19.817,16.123,35.94,35.94,35.94h89.76c13.157,0,25.01-7.078,31.317-18.337l15.825,8.554l-0.001,0.002 c-0.505,0.933-0.618,2.029-0.314,3.045c0.303,1.017,0.997,1.871,1.931,2.375l52.131,28.183c5.055,2.733,10.589,4.121,16.178,4.121 c3.274,0,6.568-0.477,9.794-1.438c8.732-2.604,15.928-8.453,20.261-16.468l11.85-21.917c1.432-2.647,1.827-7.213-4.417-13.93 C384.13,369.897,378.333,365.614,371.708,362.032z M18.197,108.451c-2.997-6.437,4.181-18.274,19.199-31.664 c16.614-14.813,40.88-30.007,68.328-42.785s54.697-21.564,76.728-24.742c5.838-0.842,11.14-1.254,15.793-1.254 c11.223,0,18.679,2.397,20.797,6.948c2.31,4.964-1.433,13.139-10.151,22.76c-19.41-16.065-60.266-14.838-99.784,3.558 c-39.515,18.396-66.758,48.87-66.96,74.065C29.173,115.814,20.507,113.415,18.197,108.451z M91.541,105.233 c-13.152,4.262-25.621,7.305-36.754,8.911c-1.589,0.229-3.134,0.423-4.641,0.589c0.546-18.961,20.222-42.467,49.049-59.261 c-1.535,2.778-3.105,5.889-4.548,9.256C88.069,80.068,87.031,93.951,91.541,105.233z M112.717,49.019 c8.307,0.629,39.628,4.305,49.794,24.133c-9.643,5.681-20.06,11.16-30.997,16.25c-10.937,5.091-21.835,9.536-32.391,13.258 C90.524,82.153,107.859,55.787,112.717,49.019z M126.417,42.805c31.387-11.225,62.012-11.141,76.863,0.64 c-1.097,1.046-2.239,2.103-3.437,3.171c-8.394,7.483-18.745,15.063-30.468,22.381C160.564,52.392,140.578,45.585,126.417,42.805z M49.672,155.596c-5.565-8.638-22.5-33.846-22.054-33.149c3.367,0.63,7.166,0.958,11.412,0.957c5.035,0,10.679-0.446,16.898-1.343 c22.783-3.286,50.825-12.31,78.963-25.408c28.136-13.099,53.094-28.748,70.275-44.066c8.64-7.703,14.839-14.888,18.525-21.402 c0,0,10.652,36.772,10.756,36.993c2.675,5.747-4.109,16.848-17.707,28.971c-15.364,13.698-37.808,27.751-63.198,39.571 c-25.39,11.82-50.593,19.948-70.966,22.886C65.741,162.035,53.007,160.773,49.672,155.596z M80.518,308.064 c-9.43,0-18.294-3.672-24.96-10.336c-6.668-6.678-10.34-15.547-10.34-24.974c0-10.841,4.955-21,13.376-27.669 c0.686-0.544,4.127-2.547,5-3.014c12.011-6.432,19.583-18.872,19.583-32.742v-35.191c0-2.209-1.791-4-4-4s-4,1.791-4,4v35.191 c0,10.412-5.43,19.805-14.148,25.024c-2.667-10.552-4.021-21.407-4.021-32.34c0-11.381,1.468-22.655,4.336-33.573 c2.091,0.214,4.32,0.329,6.704,0.329c4.674,0,9.905-0.413,15.67-1.244c21.125-3.047,47.121-11.411,73.2-23.551 c26.078-12.141,49.214-26.648,65.146-40.852c8.963-7.991,15.1-15.392,18.322-22.009c22.33,9.623,41.531,25.173,55.697,45.184 c15.278,21.583,23.607,46.927,24.087,73.29c0.217,11.84-1.149,23.591-4.054,35.001c-8.953-5.168-14.554-14.687-14.554-25.259 v-37.596c0-2.209-1.791-4-4-4s-4,1.791-4,4v37.596c0,14.523,8.288,27.497,21.293,33.631c0.65,0.307,3.321,1.791,3.912,2.266 c3.659,2.938,6.735,6.604,8.978,10.747c2.776,5.112,4.244,10.915,4.244,16.781c0,19.47-15.84,35.31-35.31,35.31h-32.28 c-7.951,0-14.935,4.204-18.857,10.504c-2.472-2.187-5.617-3.394-8.963-3.394c-3.742,0-7.136,1.52-9.598,3.975 c-2.555-2.56-5.961-3.971-9.595-3.971c-3.737,0-7.129,1.52-9.591,3.974c-2.556-2.562-5.964-3.974-9.599-3.974 c-3.743,0-7.136,1.519-9.598,3.972c-2.461-2.454-5.853-3.973-9.594-3.973c-3.742,0-7.135,1.52-9.596,3.974 c-2.461-2.454-5.853-3.974-9.595-3.974c-3.742,0-7.135,1.52-9.596,3.974c-2.461-2.454-5.853-3.974-9.595-3.974 c-3.435,0-6.567,1.29-8.962,3.398c-3.921-6.303-10.908-10.511-18.862-10.511H80.518z M261.419,316.384v36.076l-11.25-6.083 l0.03-16.115C250.199,323.456,255.016,317.757,261.419,316.384z M242.169,328.773v8.76h-11.19v-8.76c0-3.088,2.513-5.6,5.601-5.6 c1.498,0,2.897,0.579,3.951,1.639C241.587,325.869,242.169,327.275,242.169,328.773z M222.975,328.777v8.756h-11.19v-8.758 c0.006-3.087,2.519-5.598,5.601-5.598c1.498,0,2.898,0.579,3.951,1.638C222.393,325.872,222.975,327.279,222.975,328.777z M220.903,357.84c-0.977,0.796-2.208,1.277-3.517,1.277c-3.088,0-5.601-2.512-5.601-5.6v-0.606L220.903,357.84z M192.598,337.533 v-8.762c0-0.01-0.002-0.021-0.002-0.031c0.015-3.07,2.519-5.563,5.598-5.563c1.498,0,2.898,0.579,3.96,1.647 c1.051,1.044,1.63,2.445,1.63,3.943v8.766H192.598z M203.785,348.587v4.931c0,3.083-2.508,5.59-5.59,5.59 c-3.078,0-5.582-2.492-5.598-5.562c0-0.01,0.001-0.019,0.001-0.029v-7.984h5.538L203.785,348.587z M184.595,345.533v7.984 c0,0.01,0.001,0.019,0.001,0.029c-0.016,3.072-2.518,5.566-5.593,5.566c-3.086,0-5.596-2.51-5.596-5.595v-7.984H184.595z M173.408,337.533v-8.762c0-3.085,2.51-5.595,5.596-5.595c3.074,0,5.576,2.493,5.593,5.564c0,0.009-0.001,0.018-0.001,0.027v8.766 H173.408z M154.218,337.533v-8.762c0-3.085,2.51-5.595,5.596-5.595c3.085,0,5.595,2.51,5.595,5.595v8.762H154.218z M165.408,345.533v7.984c0,3.085-2.51,5.595-5.595,5.595c-3.086,0-5.596-2.51-5.596-5.595v-7.984H165.408z M135.027,337.533v-8.762 c0-3.085,2.51-5.595,5.596-5.595c3.085,0,5.595,2.51,5.595,5.595v8.762H135.027z M146.218,345.533v7.984 c0,3.085-2.51,5.595-5.595,5.595c-3.086,0-5.596-2.51-5.596-5.595v-7.984H146.218z M233.478,391.903h-89.76 c-15.406,0-27.94-12.534-27.94-27.94v-47.58c6.403,1.373,11.221,7.072,11.221,13.879l0.028,23.254 c0,7.497,6.099,13.595,13.596,13.595c3.741,0,7.134-1.52,9.595-3.974c2.461,2.454,5.854,3.974,9.596,3.974 c3.741,0,7.134-1.52,9.595-3.974c2.461,2.454,5.854,3.974,9.596,3.974s7.135-1.52,9.596-3.975c2.461,2.452,5.854,3.97,9.595,3.97 c3.738,0,7.128-1.518,9.588-3.969c2.462,2.457,5.858,3.979,9.603,3.979c3.721,0,7.137-1.482,9.618-3.973 c2.504,2.477,5.93,3.969,9.575,3.969c0.445,0,0.896-0.027,1.347-0.071l19.836,10.723 C252.842,386.45,243.663,391.903,233.478,391.903z M284.424,383.084l-69.465-37.551h16.827l56.441,30.516L284.424,383.084z M373.561,406.136c-3.317,6.136-8.825,10.613-15.51,12.606c-6.685,1.993-13.744,1.264-19.881-2.053l-48.612-26.28l8.729-16.146 l28.296,15.297c1.945,1.053,4.371,0.326,5.421-1.616l9.254-17.119c3.325,4.388,9.161,9.255,18.085,14.079 c8.925,4.825,16.193,7.042,21.686,7.42L373.561,406.136z M363.148,377.867c-11.716-6.333-16.893-12.95-17.381-15.081 c2.05-0.759,10.423-0.049,22.136,6.283c11.716,6.334,16.894,12.95,17.381,15.081C383.238,384.907,374.864,384.2,363.148,377.867z">
				</path>
				<path d="M418.323,312.741c0-12.866-10.467-23.333-23.333-23.333c-0.048,0-0.095,0-0.143,0c-1.153-9.38-9.171-16.667-18.857-16.667 c-10.477,0-19,8.523-19,19c0,0.515,0.022,1.032,0.066,1.549c-7.583,3.856-12.477,11.66-12.477,20.367 c0,6.617,2.879,12.878,7.81,17.197c-0.044,0.521-0.066,1.039-0.066,1.553c0,10.477,8.523,19,19,19 c4.588,0,8.914-1.623,12.319-4.543c2.898,1.71,6.208,2.626,9.616,2.626c10.477,0,19-8.523,19-19c0-0.65-0.036-1.309-0.107-1.971 C416.097,324.229,418.323,318.593,418.323,312.741z M405.2,324.152c-1.084,0.971-1.556,2.453-1.231,3.871 c0.192,0.842,0.29,1.672,0.29,2.466c0,6.065-4.935,11-11,11c-2.729,0-5.353-1.021-7.389-2.874 c-0.826-0.751-1.934-1.124-3.039-1.026c-1.112,0.097-2.133,0.653-2.816,1.536c-2.106,2.721-5.274,4.282-8.691,4.282 c-6.065,0-11-4.935-11-11c0-0.778,0.091-1.583,0.271-2.393c0.352-1.584-0.288-3.223-1.62-4.15 c-4.004-2.787-6.395-7.35-6.395-12.207c0-6.43,4.106-12.103,10.219-14.116c2.027-0.668,3.173-2.811,2.603-4.868 c-0.272-0.985-0.411-1.971-0.411-2.933c0-6.065,4.935-11,11-11s11,4.935,11,11c0,0.451-0.041,0.949-0.129,1.569 c-0.184,1.298,0.281,2.604,1.242,3.494c0.962,0.891,2.3,1.254,3.579,0.972c1.112-0.245,2.226-0.369,3.308-0.369 c8.455,0,15.333,6.878,15.333,15.333C410.323,317.077,408.456,321.237,405.2,324.152z">
				</path>
			</g>
			<!-- compass -->
			<g transform="scale(0.08) translate(846, 102)" style="opacity: 0.4; fill: #222;">
				<path d="M240.05,163.931c-61.156,0-110.91,49.754-110.91,110.91s49.754,110.91,110.91,110.91c61.156,0,110.91-49.754,110.91-110.91 S301.206,163.931,240.05,163.931z M331.012,278.841h11.863c-0.975,25.362-11.168,48.398-27.322,65.847l-8.354-8.355 c-1.562-1.562-4.094-1.563-5.657,0c-1.563,1.562-1.563,4.095,0,5.656l8.355,8.355c-17.449,16.153-40.484,26.347-65.846,27.321 v-11.862c0-2.209-1.791-4-4-4s-4,1.791-4,4v11.862c-25.362-0.975-48.398-11.168-65.846-27.322l8.355-8.355 c1.562-1.562,1.562-4.095,0-5.656c-1.562-1.563-4.094-1.563-5.657,0l-8.354,8.355c-16.153-17.449-26.347-40.484-27.322-65.847 h11.863c2.209,0,4-1.791,4-4s-1.791-4-4-4h-11.863c0.975-25.362,11.168-48.398,27.321-65.846l8.355,8.355 c0.781,0.781,1.805,1.172,2.829,1.172c1.023,0,2.047-0.391,2.828-1.172c1.563-1.562,1.563-4.095,0-5.656l-8.355-8.356 c17.449-16.154,40.485-26.347,65.847-27.322v11.863c0,2.209,1.791,4,4,4s4-1.791,4-4v-11.863 c25.362,0.975,48.398,11.169,65.847,27.322l-8.355,8.356c-1.562,1.562-1.562,4.095,0,5.656c0.781,0.781,1.804,1.172,2.828,1.172 s2.047-0.391,2.829-1.172l8.355-8.355c16.153,17.449,26.347,40.484,27.321,65.846h-11.863c-2.209,0-4,1.791-4,4 S328.803,278.841,331.012,278.841z">
				</path>
				<path d="M247.812,258.323c-9.108-4.281-20-0.353-24.281,8.756c-2.074,4.412-2.305,9.368-0.651,13.954 c1.654,4.586,4.995,8.254,9.407,10.327c2.467,1.159,5.104,1.743,7.751,1.743c2.087,0,4.181-0.363,6.203-1.092 c4.586-1.654,8.254-4.995,10.327-9.407c2.074-4.412,2.305-9.367,0.651-13.954C255.565,264.064,252.224,260.396,247.812,258.323z M249.328,279.202c-1.165,2.479-3.225,4.354-5.801,5.283c-2.576,0.931-5.359,0.8-7.838-0.365s-4.355-3.225-5.284-5.801 c-0.929-2.575-0.799-5.359,0.366-7.838c1.744-3.711,5.442-5.891,9.294-5.891c1.458,0,2.939,0.313,4.344,0.973 c2.478,1.165,4.354,3.225,5.284,5.801C250.622,273.94,250.492,276.724,249.328,279.202z">
				</path>
				<path d="M301.184,299.152l-31.585-14.843c2.096-6.498,1.998-13.465-0.357-19.994c-1.647-4.568-4.285-8.594-7.691-11.859 l4.684-9.966l10.68,0.464c1.075,0.056,2.117-0.34,2.901-1.07c0.785-0.732,1.242-1.748,1.271-2.82l1.201-45.489 c0.042-1.588-0.86-3.05-2.297-3.726c-1.438-0.676-3.139-0.438-4.334,0.609l-34.253,29.956c-0.807,0.706-1.297,1.707-1.36,2.777 c-0.063,1.071,0.308,2.122,1.027,2.917l7.173,7.927l-4.684,9.966c-4.686-0.538-9.469,0.001-14.036,1.648 c-6.528,2.355-11.954,6.724-15.62,12.485l-31.588-14.845c-2-0.941-4.382-0.081-5.321,1.919c-0.939,1.999-0.081,4.382,1.919,5.321 l31.588,14.844c-2.096,6.498-1.998,13.466,0.356,19.994c1.647,4.568,4.285,8.594,7.691,11.859l-4.683,9.966l-10.68-0.464 c-1.077-0.056-2.117,0.34-2.901,1.07c-0.785,0.732-1.242,1.748-1.271,2.82l-1.201,45.488c-0.042,1.588,0.859,3.05,2.297,3.726 c0.543,0.255,1.124,0.38,1.7,0.38c0.95,0,1.89-0.338,2.634-0.989l34.253-29.955c0.807-0.706,1.297-1.707,1.36-2.777 c0.063-1.071-0.308-2.122-1.027-2.917l-7.172-7.927l4.687-9.974c1.154,0.13,2.308,0.198,3.458,0.198 c10.386,0,20.39-5.246,26.186-14.328l31.594,14.848c0.55,0.259,1.128,0.381,1.699,0.381c1.502,0,2.941-0.851,3.623-2.3 C304.042,302.475,303.183,300.092,301.184,299.152z M263.921,234.383c-0.127-0.007-0.252,0.004-0.378,0.01l10.228-21.37 l-0.575,21.763L263.921,234.383z M266.988,208.666l-10.712,22.381c-0.097-0.139-0.199-0.276-0.314-0.404l-6.23-6.885 L266.988,208.666z M256.3,235.699l3.5,1.675l-4.825,10.268c-0.565-0.309-1.138-0.608-1.726-0.885 c-0.589-0.277-1.186-0.528-1.785-0.766L256.3,235.699z M216.983,315.249l-10.68,22.313l0.598-22.662 C206.902,314.899,216.719,315.29,216.983,315.249z M213.811,340.406l10.264-21.445c0.022,0.026,0.04,0.055,0.063,0.081l6.229,6.885 L213.811,340.406z M223.607,314.394l-3.5-1.675l5.017-10.676c0.565,0.309,1.138,0.608,1.727,0.885 c0.59,0.277,1.186,0.53,1.784,0.767L223.607,314.394z M260.895,284.639c-5.402,11.495-19.148,16.45-30.642,11.049 c-5.568-2.616-9.784-7.245-11.871-13.032c-2.087-5.788-1.795-12.041,0.821-17.609c2.617-5.567,7.245-9.783,13.033-11.87 c2.551-0.921,5.193-1.378,7.827-1.378c3.341,0,6.669,0.736,9.782,2.199c5.568,2.616,9.784,7.245,11.871,13.032 C263.803,272.817,263.511,279.07,260.895,284.639z">
				</path>
				<path d="M399.131,180.7c-3.07-19.609-7.958-42.119-18.592-42.119c-5.586,0-12.748,4.787-18.592,42.119 c-1.305,8.335-2.411,17.589-3.313,27.51c-4.095-7.293-8.812-14.121-14.067-20.433c12.661-20.682,25.966-54.214,21.523-100.22 c-0.2-2.066-1.913-3.643-4.024-3.615c-31.985,0.339-59.729,13.411-82.462,38.856c-5.017,5.621-9.743,11.819-14.079,18.45 c-2.143-0.407-4.304-0.753-6.476-1.057v-14.298c4.704-4.354,7.91-10.298,8.764-16.97C286.521,98.745,298.049,79.44,298.049,58 c0-31.981-26.019-58-58-58s-58,26.019-58,58c0,21.441,11.529,40.747,30.239,50.924c0.854,6.669,4.059,12.612,8.761,16.965v14.295 c-16.611,2.333-32.269,7.673-46.402,15.459l-38.038-43.875c1.784-2.579,2.835-5.701,2.835-9.067 c0-8.814-7.171-15.985-15.985-15.985c-8.814,0-15.985,7.171-15.985,15.985s7.171,15.985,15.985,15.985 c2.552,0,4.957-0.616,7.1-1.684l37.086,42.778c-2.796,1.766-5.524,3.63-8.178,5.589l-19.632-9.078 c0.585-3.168,0.206-6.433-1.145-9.433v-0.001c-3.621-8.035-13.103-11.629-21.141-8.008c-3.893,1.754-6.87,4.919-8.383,8.912 s-1.379,8.336,0.375,12.229c1.754,3.894,4.918,6.87,8.912,8.383c1.841,0.697,3.757,1.045,5.669,1.045 c2.234,0,4.462-0.475,6.56-1.419c2.289-1.031,4.248-2.56,5.792-4.448l15.957,7.379c-29.561,24.965-48.372,62.28-48.372,103.912 c0,17.118,3.188,33.504,8.987,48.606c-10.232,9.608-47.281,49.539-43.251,120.671c0.118,2.073,1.802,3.712,3.878,3.771 c1.151,0.033,2.293,0.051,3.435,0.05c27.832-0.001,52.767-9.93,74.268-29.556c1.962,18.467,7.801,36.684,17.424,54.269 c0.722,1.32,2.089,2.081,3.511,2.081c0.54,0,1.088-0.11,1.611-0.341c26.549-11.697,45.087-33.83,53.783-64.127 c4.067,0.368,8.183,0.566,12.344,0.566c49.592,0,94.68-26.798,118.585-69.365c0.902,9.922,2.008,19.179,3.313,27.515 c3.07,19.609,7.957,42.119,18.592,42.119c5.586,0,12.748-4.787,18.592-42.119c3.941-25.179,6.112-58.612,6.112-94.141 S403.072,205.879,399.131,180.7z M115.473,102.701c0-4.403,3.582-7.985,7.985-7.985c4.403,0,7.985,3.582,7.985,7.985 s-3.582,7.985-7.985,7.985C119.055,110.687,115.473,107.104,115.473,102.701z M131.582,156.252 c-0.755,1.994-2.243,3.575-4.188,4.452c-1.944,0.875-4.114,0.942-6.108,0.187c-1.995-0.756-3.576-2.242-4.452-4.188 c-0.876-1.944-0.943-4.113-0.187-6.108c0.755-1.994,2.243-3.575,4.188-4.451c1.062-0.479,2.173-0.705,3.269-0.705 c3.046,0,5.961,1.752,7.292,4.704C132.272,152.088,132.338,154.257,131.582,156.252z M285.571,128.126 c20.285-22.705,44.787-34.831,72.877-36.083c3.078,40.416-8.188,70.305-19.453,89.469c-8.245-8.743-17.578-16.336-27.756-22.583 l4.217-5.349l23.155-0.882c2.208-0.084,3.929-1.941,3.845-4.149s-1.969-3.921-4.149-3.845l-16.344,0.622l10.868-13.786 l17.288-2.893c2.179-0.365,3.649-2.427,3.285-4.605c-0.365-2.179-2.428-3.646-4.605-3.285l-8.601,1.44l8.68-11.01 c1.368-1.735,1.07-4.25-0.665-5.618c-1.736-1.367-4.251-1.07-5.618,0.665l-10.167,12.896l-3.109-11.474 c-0.579-2.133-2.775-3.399-4.907-2.814c-2.132,0.577-3.393,2.774-2.815,4.906l4.662,17.206l-11.624,14.745l-6.453-16.457 c-0.807-2.057-3.125-3.071-5.185-2.264c-2.057,0.807-3.07,3.127-2.264,5.184l8.163,20.817l-4.682,5.94 c-9.541-5.101-19.709-9.08-30.32-11.798C277.545,137.766,281.457,132.736,285.571,128.126z M218.849,87.092 c-9.206-6.738-14.811-17.578-14.811-29.092c0-19.855,16.154-36.01,36.01-36.01c19.861,0,36.02,16.154,36.02,36.01 c0,11.521-5.607,22.361-14.817,29.093c-5.138-5.959-12.734-9.743-21.201-9.743C231.583,77.351,223.988,81.134,218.849,87.092z M190.049,58c0-27.57,22.43-50,50-50s50,22.43,50,50c0,17.099-8.51,32.621-22.555,41.797c-0.42-2.078-1.076-4.069-1.929-5.954 C277.057,85.64,284.069,72.244,284.069,58c0-24.267-19.747-44.01-44.02-44.01c-24.268,0-44.01,19.743-44.01,44.01 c0,14.239,7.009,27.634,18.497,35.843c-0.854,1.885-1.509,3.877-1.929,5.956C198.56,90.623,190.049,75.1,190.049,58z M220.051,105.35c0-11.027,8.972-19.999,19.999-19.999s19.999,8.972,19.999,19.999s-8.971,19.999-19.999,19.999 S220.051,116.377,220.051,105.35z M229.049,131.093c3.379,1.45,7.098,2.255,11.001,2.255c3.903,0,7.62-0.805,10.999-2.254v8.21 c-3.638-0.293-7.305-0.454-11-0.454c-3.703,0-7.371,0.155-11,0.446V131.093z M77.608,439.938 c-2.229-61.271,27.339-97.094,38.764-108.58c5.211,11.357,11.943,21.875,19.931,31.298l-1.944,2.332l-23.506-8.736 c-2.071-0.771-4.374,0.285-5.143,2.355c-0.77,2.071,0.285,4.373,2.356,5.143l20.862,7.753l-9.736,11.679l-20.559-6.305 c-2.112-0.648-4.349,0.54-4.997,2.651c-0.648,2.112,0.54,4.35,2.651,4.997l17.349,5.321l-9.965,11.953l-12.266-2.985 c-2.145-0.523-4.31,0.794-4.833,2.941c-0.522,2.146,0.794,4.31,2.941,4.832l8.451,2.057l-13.27,15.918 c-1.415,1.697-1.186,4.22,0.511,5.634c0.748,0.624,1.656,0.928,2.56,0.928c1.146,0,2.283-0.49,3.074-1.438l12.318-14.776 l1.418,5.75c0.45,1.823,2.083,3.043,3.881,3.043c0.317,0,0.639-0.038,0.961-0.117c2.145-0.529,3.455-2.697,2.926-4.842 l-2.827-11.461l8.671-10.402l2.34,12.554c0.358,1.924,2.039,3.268,3.928,3.268c0.243,0,0.49-0.022,0.737-0.068 c2.172-0.405,3.604-2.494,3.199-4.666l-3.554-19.065l9.098-10.913l5.694,18.867c0.522,1.73,2.11,2.846,3.828,2.846 c0.383,0,0.772-0.056,1.157-0.172c2.115-0.638,3.312-2.87,2.674-4.984l-7.218-23.916l1.633-1.959 c7.385,7.737,15.674,14.604,24.692,20.437c-4.535,6.428-9.413,12.359-14.542,17.662C130.688,428.65,105.726,439.797,77.608,439.938 z M174.06,465.508c-9.139-17.69-14.253-35.987-15.244-54.459c5.091-5.396,9.938-11.355,14.444-17.786 c5.315,3.01,10.85,5.674,16.577,7.958l-0.029,0.093l-15.241,3.488c-2.153,0.493-3.5,2.639-3.007,4.792 c0.493,2.153,2.636,3.495,4.792,3.007l10.694-2.448l-4.398,14.076l-10.746,1.512c-2.188,0.308-3.711,2.331-3.404,4.519 c0.308,2.188,2.33,3.712,4.518,3.403l6.992-0.984l-5.268,16.86c-0.659,2.109,0.516,4.353,2.625,5.012 c0.397,0.124,0.799,0.183,1.194,0.183c1.703,0,3.282-1.097,3.817-2.808l5.216-16.695l2.572,3.738 c0.775,1.128,2.026,1.733,3.299,1.733c0.782,0,1.571-0.229,2.264-0.704c1.82-1.252,2.28-3.743,1.028-5.563l-6.13-8.911l4.29-13.731 l7.544,8.553c0.791,0.896,1.894,1.354,3.001,1.354c0.94,0,1.884-0.329,2.645-1c1.657-1.462,1.815-3.989,0.354-5.646l-9.258-10.496 c6.611,2.086,13.438,3.682,20.439,4.74C211.808,435.642,196.508,454.531,174.06,465.508z M240.049,402.831 c-70.574,0-127.99-57.416-127.99-127.99s57.416-127.99,127.99-127.99c22.664,0,44.321,5.949,63.186,16.647 c0.06,0.035,0.118,0.073,0.178,0.104c23.545,13.402,42.71,34.219,54.009,60.143c-1.042,15.988-1.588,33.278-1.588,51.096 c0,17.82,0.547,35.111,1.588,51.099C337.044,372.677,291.082,402.831,240.049,402.831z M363.834,274.841 c0-33.735,1.993-65.784,5.611-90.241c1.814-12.26,3.717-20.579,5.433-26.231c6.641,21.629,11.031,66.572,11.031,116.472 c0,49.892-4.391,94.834-11.031,116.47c-1.716-5.651-3.618-13.97-5.432-26.228C365.827,340.625,363.834,308.576,363.834,274.841z M391.632,365.083c-4.731,31.976-10.075,37.213-11.094,37.938c-0.204-0.145-0.583-0.477-1.094-1.161 c8.697-18.795,14.464-68.977,14.464-127.018c0-58.049-5.768-108.231-14.464-127.019c0.51-0.684,0.89-1.016,1.094-1.161 c1.019,0.725,6.363,5.962,11.094,37.938c3.618,24.458,5.611,56.507,5.611,90.242S395.25,340.625,391.632,365.083z">
				</path>
			</g>
			<g transform="scale(0.08) translate(68, 767)" style="opacity: 0.3; fill: #222;">
				<path d="M199.225,425.25c-15.924-8.026-28.085-21.661-34.259-38.427c-0.28-0.741-0.544-1.499-0.796-2.255l-13.699-41.554 c-1.945-5.91-4.607-11.592-7.908-16.881c-7.559-12.161-18.325-22-31.136-28.452c-1.667-0.84-3.692-0.416-4.881,1.022 c-1.189,1.437-1.228,3.505-0.092,4.986c0.068,0.09,6.947,9.151,10.53,22.351c1.413,5.184,2.11,10.328,2.09,15.322 C52.913,401.198,2.424,432.212,1.918,432.52c-1.386,0.845-2.124,2.443-1.868,4.046s1.455,2.892,3.034,3.263 c0.659,0.155,6.311,1.404,16.64,1.404c20.661,0,60.032-5.014,115.528-33.768c19.607,17.142,38.358,26.028,54.858,26.028 c2.749,0,5.439-0.247,8.058-0.742c1.685-0.318,2.979-1.675,3.218-3.372S200.755,426.021,199.225,425.25z M142.872,345.516 l1.396,4.234c-44.968,35.669-76.092,51.917-94.59,59.291c19.299-14.452,46.004-35.65,76.054-62.915 c4.089-3.709,8.275-7.567,12.485-11.506C140.074,338.117,141.637,341.764,142.872,345.516z M133.976,327.63 c-2.438,2.287-4.867,4.546-7.278,6.769c-0.38-3.463-1.039-6.959-1.993-10.46c-1.043-3.841-2.331-7.362-3.672-10.475 C125.966,317.555,130.321,322.321,133.976,327.63z M15.816,433.074c3.853-2.564,8.788-5.921,14.67-10.071 c7.09-0.862,43.754-7.949,116.449-65.163l9.443,28.644c-7.428,4.468-14.856,8.676-22.124,12.5 c-0.095,0.041-0.188,0.085-0.281,0.134C74.94,430.188,34.11,433.609,15.816,433.074z M142.841,403.454 c5.436-2.951,10.933-6.092,16.437-9.381c5.408,12.32,13.823,22.935,24.47,30.946C169.019,422.779,154.35,413.148,142.841,403.454z">
				</path>
				<path d="M470.102,47.353c-4.007-8.459-12.373-14.015-21.68-15.013c-74.162-7.955-142.996,38.109-163.897,109.761l-9.189,31.504 c-0.769,0.569-1.517,1.147-2.247,1.732c-0.173-0.133-0.351-0.256-0.522-0.392l-30.715-24.377 c-10.246-8.133-25.2-6.414-33.334,3.834s-6.413,25.202,3.835,33.336l0.772,0.612c6.912,5.487,17.004,4.326,22.489-2.587 c0.464-0.584,0.862-1.198,1.232-1.823c7.246,0.945,14.046,3.712,19.834,8.043c-3.925,5.15-7.976,10.368-12.092,15.564 c-16.932,21.367-35.013,42.466-53.76,62.771c-15.887-9.828-30.645-13.544-43.901-11.041c-1.684,0.318-2.979,1.675-3.218,3.372 c-0.239,1.698,0.63,3.359,2.16,4.13c11.566,5.83,21.283,14.737,28.097,25.752c2.888,4.691,5.226,9.718,6.949,14.94l13.71,41.548 c1.43,4.325,3.237,8.544,5.378,12.547c7.631,14.192,19.271,25.528,33.664,32.781c0.572,0.288,1.187,0.427,1.795,0.427 c1.161,0,2.3-0.506,3.08-1.446c1.19-1.434,1.231-3.502,0.102-4.984c-0.069-0.091-6.974-9.24-10.525-22.346 c-1.74-6.386-2.39-12.659-1.965-18.678c23.694-18.931,47.999-40.811,72.268-65.07c0.993-0.994,1.394-2.435,1.053-3.798 c-2.622-10.499-2.516-21.784,0.3-31.779c1.533-5.459,3.852-10.398,6.882-14.748c7.775,4.944,13.666,12.215,16.896,20.833 c-0.525,0.502-1.032,1.029-1.496,1.614c-5.487,6.914-4.327,17.003,2.586,22.489l0.773,0.614c4.354,3.455,9.557,5.132,14.726,5.132 c6.997,0,13.932-3.073,18.609-8.966c3.94-4.964,5.711-11.166,4.986-17.461c-0.724-6.296-3.856-11.934-8.821-15.874l-30.714-24.377 c-2.329-1.849-4.409-3.936-6.226-6.208l21.569-23.801c2.39-2.635,3.94-5.716,4.64-8.949c0.155-0.717,0.297-1.438,0.489-2.146 l4.818-17.813l0.252-0.078c9.682-3.002,17.266-10.579,20.278-20.258l0.116-0.374l0.358-0.111 c9.689-3.005,17.273-10.594,20.274-20.284l0.106-0.344l0.345-0.107c9.676-3.001,17.256-10.569,20.273-20.24l0.125-0.399 c7.81-2.59,14.247-8.268,17.88-15.522c4.801,3.892,10.891,6.028,17.113,5.919c7.44-0.119,14.528-3.389,19.448-8.973 C473.051,68.306,474.691,57.04,470.102,47.353z M292.205,144.342c19.876-68.141,85.52-111.867,156.04-103.973 c6.979,0.781,12.655,5.158,15.185,11.708c0.274,0.71,0.495,1.426,0.681,2.145c-6.213-2.689-16.518-6.155-29.781-7.02 c-20.105-1.314-51.082,3.377-84.568,33.158c-34.767,30.914-47.932,61.036-52.814,81.319c-3.889,1.637-7.735,3.464-11.392,5.464 L292.205,144.342z M244.989,219.849c0.423,8.643-0.453,23.355-7.599,42.553c-1.207,3.242-3.098,6.198-5.554,8.634 c-14.192,14.08-28.112,27.308-41.502,39.444l-1.819-5.514c-1.594-4.828-3.666-9.501-6.163-13.942 c3.838-4.002,7.807-8.207,12.084-12.809C211.979,259.328,228.95,239.727,244.989,219.849z M161.31,266.995 c7.469,1.12,15.482,4.233,23.967,9.308c-2.535,2.707-4.977,5.291-7.352,7.779C173.275,277.557,167.679,271.791,161.31,266.995z M208.75,360.767c3.107-2.319,6.223-4.69,9.336-7.1c0.219,4.739,0.988,9.567,2.313,14.431c1.043,3.85,2.334,7.377,3.678,10.496 C218.021,373.585,212.848,367.581,208.75,360.767z M219.816,342.151c-4.909,3.901-9.875,7.731-14.815,11.433 c-1.044-2.307-1.984-4.667-2.778-7.072l-9.15-27.73c15.135-13.626,30.963-28.661,47.114-44.768c0.795-0.793,1.646-1.541,2.548-2.21 c21.223-15.753,39.477-20.334,48.031-21.664c-1.697,9.075-1.561,18.777,0.428,28.021 C267.198,302.045,243.192,323.567,219.816,342.151z M292.912,241.779c-6.782,0.653-24.277,3.648-45.906,17.377 c8.235-25.298,6.166-42.423,5.043-48.15c3.593-4.553,7.136-9.115,10.581-13.629l0.729,0.796 c6.885,7.507,17.043,10.388,26.487,8.023c-0.132,8.265,3.54,16.155,10.072,21.413C296.975,231.886,294.621,236.623,292.912,241.779 z M349.945,246.574c3.29,2.611,5.367,6.348,5.847,10.521c0.48,4.173-0.693,8.284-3.305,11.574 c-5.391,6.792-15.304,7.934-22.096,2.542l-0.773-0.614c-3.458-2.745-4.038-7.792-1.294-11.25s7.789-4.04,11.251-1.294 c1.729,1.373,4.247,1.083,5.619-0.646c1.374-1.73,1.084-4.247-0.646-5.62c-4.072-3.232-9.243-4.14-13.93-2.941 c-4.258-10.601-11.942-19.405-21.997-25.07l-1.018-0.573c-7.838-4.416-11.513-13.521-8.938-22.141 c0.468-1.567-0.065-3.262-1.347-4.278c-1.28-1.017-3.052-1.152-4.472-0.339c-7.808,4.465-17.511,2.954-23.591-3.677l-0.79-0.862 c-7.8-8.505-18.119-13.989-29.409-15.73c0.104-4.837-1.955-9.667-6.028-12.899c-1.731-1.374-4.247-1.083-5.619,0.646 c-1.374,1.73-1.084,4.247,0.646,5.62c3.458,2.745,4.038,7.792,1.294,11.25c-2.747,3.459-7.794,4.037-11.252,1.293l-0.772-0.612 c-6.792-5.391-7.932-15.303-2.541-22.095c5.393-6.792,15.303-7.931,22.096-2.542l30.714,24.377 c9.742,7.733,22.001,11.236,34.229,9.894c1.472,12.209,7.665,23.357,17.407,31.09L349.945,246.574z M333.62,180.547l-20.102,22.182 c-2.487-5.021-3.886-10.583-4.023-16.345c-0.028-1.187-0.582-2.3-1.513-3.038c-0.929-0.738-2.139-1.025-3.302-0.783 c-8.281,1.723-16.754,0.695-24.258-2.784c11.98-8.78,29.368-15.245,42.552-17.98c5.9-1.227,10.113,2.019,12.083,5.464 C337.041,170.732,337.705,176.044,333.62,180.547z M340.222,160.673c-4.499-5.611-11.605-8.216-18.871-6.706 c-4.68,0.971-9.865,2.392-15.182,4.206c0.6-2.032,1.3-4.157,2.086-6.347c25.41-5.89,32.173,0.228,33.703,2.405L340.222,160.673z M348.088,149.048c-0.963-1.238-2.361-2.602-4.4-3.845c-6.89-4.2-17.585-4.961-31.827-2.304c1.013-2.257,2.122-4.568,3.352-6.935 c21.536-10.856,40.134-4.155,46.91-0.907C359.824,141.62,354.66,146.769,348.088,149.048z M368.114,128.555l-0.705,0.219 c-5.449-2.901-23.481-10.925-45.662-4.074c3.207-5.014,6.914-10.187,11.239-15.478c21.076-7.52,42.447,1.391,49.876,5.099 C380.478,121.119,375.026,126.41,368.114,128.555z M388.852,107.816l-0.704,0.219c-5.56-3.019-24.513-12.121-45.962-9.232 c3.655-3.849,7.639-7.735,11.984-11.642c17.182-5.887,40.927,3.027,49.354,6.643C401.1,100.496,395.689,105.695,388.852,107.816z M408.722,87.346c-5.35-2.46-24.097-10.399-42.425-10.129c6.475-4.786,13.024-8.807,19.636-12.051 c10.153-1.618,19.798-0.486,28.673,3.373c3.999,1.74,6.94,3.674,8.691,4.975C420.852,80.058,415.455,85.247,408.722,87.346z M460.059,70.953c-3.484,3.954-8.305,6.178-13.573,6.263c-5.229,0.064-10.157-1.985-13.766-5.826l-1.881-2.002 c-0.049-0.052-0.104-0.095-0.155-0.144l0.006-0.006c-0.501-0.481-9.132-8.546-24.204-11.613c8.89-2.182,17.867-3.013,26.904-2.467 c15.183,0.916,26.265,5.657,30.808,7.941C463.503,65.935,462.114,68.62,460.059,70.953z">
				</path>
				<path d="M272.009,213.524c-3.217,0-6.24,1.252-8.514,3.526c-2.274,2.274-3.527,5.298-3.527,8.514s1.253,6.24,3.526,8.514 c2.274,2.274,5.298,3.527,8.515,3.527c3.216,0,6.239-1.252,8.515-3.527c4.693-4.694,4.693-12.333-0.001-17.028 C278.248,214.776,275.225,213.524,272.009,213.524z M274.867,228.421c-0.764,0.763-1.778,1.184-2.857,1.184 s-2.094-0.42-2.857-1.184c-0.764-0.763-1.184-1.778-1.184-2.857s0.42-2.094,1.184-2.857c0,0,0,0,0.001,0 c0.763-0.763,1.777-1.183,2.856-1.183s2.094,0.42,2.856,1.183C276.442,224.283,276.442,226.846,274.867,228.421z">
				</path>
			</g>
			<g transform="scale(0.08) translate(742, 910)" style="opacity: 0.4; fill: #222;">
				<path d="M484.435,311.216l-9.444-9.42c-1.892-1.888-4.441-2.93-7.179-2.934c-6.338-0.009-12.563-2.389-17.549-6.717l-0.2-0.171 c-2.044-1.739-4.355-3.16-6.829-4.211c0.065-0.121,0.124-0.243,0.19-0.363c4.121-7.5,2.678-17.049-3.51-23.221l-69.634-69.458 c-1.93-1.924-4.491-2.983-7.215-2.983c-0.005,0-0.011,0-0.016,0c-1.332,0.002-2.624,0.257-3.822,0.742L345.207,178.5 c-0.765-0.761-1.803-1.209-2.88-1.167c-1.077,0.015-2.104,0.464-2.846,1.246l-6.343,6.357l-65.827-65.656l73.49-73.297 c1.563-1.56,1.567-4.092,0.007-5.657l-18.11-18.16c-1.56-1.564-4.093-1.567-5.656-0.008l-7.422,7.402l-9.542-9.542 c-0.983-0.983-2.41-1.383-3.76-1.062c-1.353,0.324-2.439,1.327-2.871,2.649L281.8,57.309l-38.311,38.21l-38.315-38.215 l-11.646-35.697c-0.431-1.322-1.519-2.326-2.871-2.649c-1.354-0.322-2.776,0.078-3.76,1.062l-9.54,9.54l-7.424-7.405 c-1.564-1.56-4.097-1.557-5.657,0.007l-18.112,18.159c-0.749,0.751-1.169,1.769-1.168,2.83c0.001,1.061,0.424,2.078,1.175,2.827 l73.493,73.302l-65.835,65.669l-5.696-5.696l-0.639-0.673c-0.742-0.782-1.769-1.231-2.846-1.246 c-1.09-0.039-2.116,0.405-2.879,1.167l-14.02,13.982c-1.199-0.485-2.491-0.74-3.823-0.742c-0.005,0-0.01,0-0.016,0 c-2.724,0-5.286,1.059-7.215,2.983L47.062,264.18c-6.188,6.172-7.631,15.721-3.51,23.221c0.066,0.12,0.126,0.243,0.19,0.364 c-2.475,1.052-4.788,2.474-6.839,4.219l-0.208,0.179c-4.967,4.312-11.193,6.691-17.53,6.7c-2.737,0.004-5.286,1.046-7.178,2.933 l-9.445,9.42c-1.636,1.631-2.539,3.805-2.542,6.12c-0.003,2.195,0.814,4.288,2.3,5.893c1.572,1.698,3.741,2.659,6.106,2.707 c2.429,0.03,4.81-0.904,6.524-2.614l1.412-1.409c2.348-2.341,5.87-3.1,8.975-1.93l0.371,0.139c1.851,0.696,3.386,2.158,4.324,4.115 c1.368,2.857,3.213,5.418,5.485,7.636l-5.079,5.066c-3.754,3.746-5.504,9.108-4.681,14.344 c2.956,18.79,13.689,66.907,49.418,107.79c5.111,5.844,12.311,9.054,19.764,9.054c2.143,0,4.307-0.266,6.448-0.811 c12-3.044,23.488-10.039,34.146-20.792c9.466-9.565,10.045-25.127,1.319-35.43c-6.411-7.566-14.316-17.879-22.862-29.824 c-1.235-1.726-2.074-3.743-2.427-5.833c-0.189-1.119-0.239-2.246-0.158-3.356l3.442,1.859c6.332,3.411,13.15,5.083,19.904,5.083 c10.025,0,19.906-3.685,27.835-10.836c13.268-11.967,17.439-30.373,10.627-46.889l-4.631-11.232l42.843-42.843 c1.321-1.321,1.551-3.381,0.555-4.961l-0.82-1.301c-0.158-0.25-13.973-14.14-13.973-14.14c-1.542-1.672-2.394-3.823-2.393-6.11 c0.002-2.417,0.947-4.69,2.662-6.4c1.564-1.56,1.567-4.093,0.008-5.657l-0.932-0.935l38.864-38.764 c0.751-0.749,1.174-1.766,1.175-2.827c0.001-1.061-0.419-2.079-1.168-2.83l-7.898-7.918c-1.56-1.564-4.093-1.567-5.657-0.007 l-25.83,25.763l-5.371-5.371l52.862-52.721l52.86,52.722l-5.373,5.373l-25.833-25.766c-0.75-0.748-1.767-1.168-2.825-1.168 c-0.002,0-0.004,0-0.005,0c-1.062,0.001-2.078,0.424-2.827,1.175l-7.897,7.918c-1.561,1.564-1.557,4.097,0.007,5.657l38.865,38.764 l-0.932,0.935c-0.749,0.751-1.17,1.769-1.168,2.83c0.002,1.061,0.425,2.078,1.176,2.827c1.715,1.71,2.66,3.983,2.661,6.4 c0.002,2.284-0.849,4.433-2.397,6.115c0,0-13.81,13.883-13.968,14.134l-0.82,1.301c-0.996,1.581-0.766,3.641,0.556,4.962 l42.842,42.842l-4.631,11.232c-6.812,16.517-2.64,34.922,10.629,46.89c7.928,7.151,17.808,10.835,27.833,10.835 c6.754,0,13.575-1.673,19.908-5.085l3.439-1.857c0.081,1.11,0.031,2.237-0.158,3.357c-0.353,2.089-1.192,4.106-2.427,5.832 c-8.548,11.947-16.453,22.26-22.861,29.825c-8.727,10.301-8.147,25.864,1.32,35.432c10.656,10.75,22.145,17.745,34.142,20.789 c2.143,0.545,4.308,0.811,6.451,0.811c7.454,0,14.654-3.21,19.764-9.055c35.727-40.879,46.461-88.998,49.418-107.789 c0.823-5.236-0.926-10.598-4.681-14.344l-5.079-5.066c2.273-2.22,4.117-4.78,5.485-7.636c0.938-1.957,2.473-3.418,4.321-4.114 l0.376-0.141c3.105-1.17,6.625-0.41,8.972,1.931l1.412,1.409c1.714,1.709,4.092,2.644,6.524,2.614 c2.366-0.047,4.534-1.008,6.104-2.705c1.488-1.605,2.306-3.699,2.302-5.892C486.974,315.022,486.071,312.848,484.435,311.216z M395.512,303.644c-6.749,6.767-15.725,10.5-25.275,10.513c-2.604-0.006-5.16-0.291-7.642-0.826l42.506-42.616 C407.608,282.21,404.421,294.712,395.512,303.644z M354.224,310.394c-3.39-1.692-6.527-3.927-9.292-6.685l-37.64-37.542 l3.565-3.574l28.182,28.109c2.535,2.529,5.86,3.792,9.187,3.792c3.337,0,6.674-1.272,9.211-3.815 c2.459-2.465,3.808-5.737,3.796-9.196c0.003-3.475-1.354-6.743-3.819-9.203l-28.182-28.109l8.391-8.413l28.182,28.109 c2.457,2.45,5.719,3.799,9.187,3.799c0.006,0,0.012,0,0.018,0c3.475-0.004,6.74-1.362,9.194-3.823 c2.458-2.465,3.807-5.736,3.796-9.197c0.002-3.475-1.355-6.742-3.82-9.201l-28.182-28.108l1.81-1.815l37.64,37.542 c2.796,2.789,5.023,5.932,6.702,9.283L354.224,310.394z M323.581,249.836l28.181,28.108c0.949,0.946,1.471,2.201,1.47,3.549 c0.005,1.332-0.514,2.587-1.46,3.536c-0.945,0.948-2.202,1.471-3.54,1.472c-0.002,0-0.005,0-0.007,0 c-1.335,0-2.591-0.519-3.536-1.463l-28.183-28.109L323.581,249.836z M350.346,223l28.182,28.109 c0.948,0.946,1.471,2.201,1.47,3.547c0.004,1.333-0.515,2.589-1.46,3.538c-0.945,0.948-2.203,1.471-3.541,1.472 c-0.002,0-0.004,0-0.007,0c-1.335,0-2.591-0.519-3.536-1.463l-28.182-28.109L350.346,223z M301.628,260.518l-7.095-7.076 l50.515-50.643l7.093,7.074L301.628,260.518z M315.023,203.092l-7.351-7.332l12.479-12.479l7.334,7.315L315.023,203.092z M299.031,30.286l4.925,4.925l-9.682,9.657L299.031,30.286z M319.858,30.648l12.462,12.496l-70.673,70.487l-12.494-12.462 L319.858,30.648z M187.945,30.286l4.756,14.577l-9.679-9.654L187.945,30.286z M159.491,190.603l7.34-7.321l12.478,12.478 l-7.355,7.336l-9.243-9.266l0,0l-0.405-0.405L159.491,190.603z M192.443,253.441l-7.095,7.076l-50.514-50.645l7.093-7.075 L192.443,253.441z M81.875,270.713l42.516,42.627c-2.472,0.533-5.016,0.816-7.604,0.816c-0.016,0-0.032,0-0.047,0 c-9.55-0.012-18.527-3.746-25.276-10.513C82.555,294.711,79.368,282.209,81.875,270.713z M132.756,310.399l-47.927-48.052 c1.678-3.351,3.905-6.494,6.701-9.282l37.64-37.542l1.81,1.815l-28.182,28.109c-2.465,2.459-3.822,5.727-3.819,9.186 c-0.012,3.475,1.336,6.746,3.795,9.212c2.537,2.544,5.874,3.816,9.211,3.816c3.326,0,6.652-1.264,9.187-3.792l28.182-28.109 l8.391,8.413l-28.182,28.109c-2.465,2.458-3.821,5.726-3.82,9.187c-0.011,3.475,1.337,6.746,3.796,9.211 c2.537,2.544,5.874,3.816,9.211,3.816c3.326,0,6.652-1.264,9.187-3.792l28.182-28.109l3.565,3.574l-37.64,37.542 C139.281,306.464,136.145,308.703,132.756,310.399z M143.704,230.094l-28.182,28.109c-1.955,1.95-5.134,1.947-7.084-0.009 c-0.946-0.948-1.464-2.204-1.46-3.552c-0.001-1.333,0.521-2.587,1.469-3.533L136.629,223L143.704,230.094z M170.47,256.929 l-28.182,28.109c-1.955,1.95-5.134,1.947-7.084-0.009c-0.946-0.948-1.465-2.205-1.46-3.551c0-1.333,0.521-2.588,1.469-3.534 l28.182-28.108L170.47,256.929z M28.504,312.633l-0.371-0.139c-6.032-2.271-12.877-0.796-17.441,3.754l-1.412,1.409 c-0.181,0.18-0.451,0.27-0.715,0.279c-0.122-0.002-0.29-0.029-0.396-0.143C8.057,317.671,8,317.521,8,317.346 c0-0.183,0.064-0.339,0.191-0.466l9.445-9.42c0.385-0.384,0.932-0.596,1.541-0.597c8.26-0.012,16.344-3.087,22.744-8.643 l0.179-0.153c1.399-1.19,2.936-2.145,4.59-2.865c2.833,10.497,0.73,21.908-5.801,30.729c-1.505-1.516-2.743-3.235-3.66-5.15 C35.394,316.954,32.297,314.061,28.504,312.633z M165.799,324.349c6.682,16.203-0.056,30.201-8.59,37.899 c-8.536,7.699-23.156,12.963-38.584,4.652l-4.361-2.355c0.368-0.479,0.762-0.94,1.195-1.372l16.286-16.286 c1.339,4.62,4.269,8.537,8.389,11.111c3.148,1.966,6.696,2.977,10.31,2.977c1.55,0,3.112-0.186,4.659-0.562 c2.146-0.522,3.464-2.685,2.942-4.832c-0.522-2.147-2.688-3.465-4.832-2.942c-3.045,0.739-6.184,0.233-8.841-1.426 c-2.658-1.66-4.49-4.26-5.16-7.32l-0.803-3.669l24.029-24.029L165.799,324.349z M109.802,357.516 c-5.036,5.036-7.333,12.235-6.146,19.256c0.554,3.28,1.871,6.445,3.809,9.154c8.794,12.292,16.622,22.5,23.264,30.34 c6.071,7.167,5.675,17.987-0.899,24.629c-9.619,9.705-19.857,15.985-30.432,18.667c-6.653,1.692-13.635-0.513-18.219-5.756 c-34.355-39.311-44.69-85.663-47.538-103.767c-0.427-2.714,0.48-5.494,2.428-7.437l7.022-7.005 c13.72-13.683,16.793-35.087,7.473-52.051c-2.416-4.397-1.533-10.033,2.148-13.704l69.633-69.457 c0.419-0.417,0.975-0.647,1.566-0.647c0.001,0,0.002,0,0.003,0c0.592,0.001,1.149,0.232,1.567,0.652 c0.749,0.752,1.767,1.175,2.828,1.176c0.002,0,0.003,0,0.005,0c1.06,0,2.076-0.42,2.826-1.169l4.204-4.196l0.931,0.933L85.88,247.4 c-17.086,17.042-17.122,44.807-0.081,61.893c8.258,8.28,19.243,12.848,30.93,12.863c0.02,0,0.039,0,0.059,0 c11.665,0,22.639-4.539,30.905-12.783l50.416-50.285l5.055,5.065L109.802,357.516z M141.009,190.553l3.561-3.55l12.482,12.483 l0.003-0.003l7.061,7.081l-0.003,0.003l25.174,25.237c-0.962,1.561-1.653,3.265-2.065,5.052L141.009,190.553z M189.84,218.582 l6.154-6.138l2.252,2.251l-6.157,6.141L189.84,218.582z M224.648,183.864l2.249,2.254l-22.987,22.928l-2.251-2.251L224.648,183.864 z M190.337,206.788l-7.371,7.352l-5.365-5.379l7.364-7.344L190.337,206.788z M184.973,190.11l-12.478-12.478l52.834-52.702 l12.499,12.466L184.973,190.11z M154.653,43.139l12.463-12.495l147.372,146.989l-12.479,12.479L154.653,43.139z M262.328,183.864 l22.993,22.934l-2.251,2.251l-22.99-22.931L262.328,183.864z M290.985,212.448l6.15,6.134l-2.248,2.254l-6.153-6.138 L290.985,212.448z M296.643,206.791l5.373-5.373l7.361,7.341l-5.366,5.38L296.643,206.791z M297.688,231.804l25.174-25.238 l-0.002-0.003l7.061-7.08l0.002,0.002l12.482-12.482l3.562,3.55l-46.213,46.304C299.341,235.07,298.65,233.365,297.688,231.804z M368.353,366.898c-15.431,8.314-30.048,3.049-38.586-4.65c-8.534-7.698-15.272-21.696-8.59-37.899l3.362-8.154l24.029,24.029 l-0.803,3.668c-0.671,3.061-2.503,5.661-5.161,7.321c-2.657,1.66-5.799,2.167-8.84,1.426c-2.153-0.521-4.311,0.796-4.832,2.942 c-0.521,2.146,0.795,4.31,2.941,4.832c1.548,0.376,3.109,0.562,4.659,0.562c3.613,0,7.162-1.01,10.31-2.977 c4.121-2.574,7.05-6.491,8.389-11.111l16.286,16.286c0.432,0.432,0.827,0.893,1.195,1.372L368.353,366.898z M453.336,350.04 c-2.85,18.104-13.185,64.458-47.539,103.767c-4.583,5.243-11.563,7.447-18.222,5.756c-10.572-2.682-20.811-8.963-30.427-18.665 c-6.576-6.646-6.972-17.465-0.901-24.632c6.641-7.838,14.468-18.046,23.264-30.34c1.938-2.708,3.255-5.873,3.81-9.153 c1.188-7.022-1.111-14.221-6.147-19.257l-93.36-93.361l5.055-5.065l50.416,50.284c8.267,8.245,19.239,12.783,30.905,12.783 c0.019,0,0.039,0,0.058,0c11.688-0.015,22.672-4.583,30.93-12.863c17.042-17.086,17.006-44.851-0.08-61.893L350.7,197.135 l0.931-0.933l4.205,4.196c0.75,0.748,1.766,1.168,2.825,1.168c0.002,0,0.004,0,0.005,0c1.062-0.001,2.079-0.424,2.828-1.176 c0.418-0.419,0.975-0.651,1.567-0.652c0.001,0,0.002,0,0.003,0c0.592,0,1.148,0.23,1.566,0.647l69.633,69.457 c3.682,3.671,4.564,9.307,2.148,13.704c-9.32,16.964-6.247,38.368,7.473,52.05l7.022,7.005 C452.854,344.546,453.763,347.326,453.336,350.04z M478.805,317.794c-0.104,0.113-0.272,0.14-0.395,0.143 c-0.266,0.004-0.534-0.099-0.715-0.279l-1.413-1.409c-4.563-4.552-11.411-6.025-17.437-3.755l-0.376,0.141 c-3.792,1.427-6.889,4.321-8.721,8.146c-0.917,1.914-2.155,3.632-3.661,5.15c-6.531-8.821-8.634-20.232-5.801-30.73 c1.653,0.72,3.187,1.672,4.579,2.857l0.171,0.146c6.419,5.572,14.503,8.647,22.763,8.659c0.608,0.001,1.155,0.213,1.54,0.597 l9.445,9.421c0.126,0.125,0.19,0.281,0.19,0.467C478.976,317.522,478.919,317.671,478.805,317.794z">
				</path>
				<path d="M407.599,340.94c0.006,0,0.011,0,0.017,0c3.226-0.004,6.257-1.264,8.535-3.548c4.703-4.715,4.692-12.377-0.022-17.081 c-2.28-2.274-5.309-3.526-8.528-3.526c-0.006,0-0.011,0-0.017,0c-3.226,0.004-6.257,1.264-8.534,3.548 c-2.278,2.284-3.53,5.318-3.526,8.544c0.004,3.226,1.265,6.257,3.548,8.535C401.351,339.688,404.379,340.94,407.599,340.94z M404.714,325.983c0.769-0.771,1.791-1.196,2.88-1.198c0.002,0,0.004,0,0.006,0c1.087,0,2.109,0.423,2.879,1.19 c1.592,1.588,1.596,4.175,0.008,5.767c-0.77,0.771-1.793,1.196-2.882,1.198c-0.002,0-0.003,0-0.005,0 c-1.087,0-2.109-0.423-2.879-1.19c-0.771-0.769-1.197-1.792-1.198-2.882C403.521,327.779,403.943,326.754,404.714,325.983z">
				</path>
				<path d="M425.321,353.812l-0.51-0.195c-11.864-4.505-25.431,0.951-30.879,12.419c-5.084,10.704-14.323,27.051-29.469,44.147 c-6.354,7.171-6.022,18.128,0.753,24.943c0,0,0,0,0.001,0c6.958,6.998,14.17,12.047,21.437,15.007 c2.199,0.896,4.493,1.329,6.766,1.329c5.249,0,10.378-2.313,13.939-6.57c6.015-7.191,26.178-32.947,33.086-62.458 C443.241,370.491,436.737,358.186,425.321,353.812z M432.656,380.611c-6.506,27.793-25.704,52.299-31.434,59.148 c-2.861,3.421-7.501,4.615-11.551,2.965c-6.178-2.516-12.672-7.094-18.782-13.238h0.001c-3.808-3.829-4-9.978-0.438-13.998 c15.767-17.798,25.401-34.849,30.707-46.02c3.672-7.732,12.815-11.411,20.802-8.376l0.494,0.188 C430.159,364.232,434.545,372.543,432.656,380.611z">
				</path>
				<path d="M79.361,340.94c0.006,0,0.011,0,0.016,0c3.22,0,6.249-1.252,8.528-3.526c4.715-4.703,4.725-12.365,0.022-17.08 c-4.702-4.715-12.364-4.726-17.08-0.022c-4.715,4.703-4.725,12.365-0.022,17.08C73.104,339.676,76.135,340.936,79.361,340.94z M76.497,325.976c1.591-1.588,4.178-1.585,5.767,0.007c1.587,1.592,1.584,4.178-0.008,5.766c-0.77,0.768-1.792,1.19-2.879,1.19 c-0.002,0-0.004,0-0.005,0c-1.089-0.001-2.113-0.427-2.882-1.198C74.902,330.15,74.905,327.564,76.497,325.976z">
				</path>
				<path d="M62.16,353.619l-0.501,0.191c-11.42,4.376-17.924,16.682-15.128,28.624c6.908,29.511,27.071,55.267,33.086,62.458 c3.562,4.258,8.69,6.57,13.939,6.57c2.272,0,4.566-0.433,6.766-1.329c7.266-2.959,14.478-8.009,21.437-15.007 c6.777-6.815,7.108-17.771,0.754-24.943c-15.146-17.096-24.385-33.444-29.469-44.147C87.595,354.568,74.033,349.114,62.16,353.619z M116.085,429.486c-6.11,6.145-12.604,10.722-18.782,13.238c-4.045,1.65-8.688,0.457-11.55-2.965 c-5.729-6.849-24.927-31.355-31.434-59.148c-1.889-8.068,2.497-16.378,10.203-19.331l0.481-0.184 c1.898-0.721,3.86-1.063,5.799-1.063c6.23,0,12.214,3.539,15.014,9.435c5.306,11.17,14.94,28.222,30.708,46.02 C120.085,419.508,119.893,425.657,116.085,429.486z">
				</path>
				<path d="M107.538,116.779l-2.75,16.03c-0.257,1.5,0.359,3.018,1.591,3.912c1.231,0.895,2.865,1.013,4.212,0.305l14.396-7.568 l14.396,7.568c0.585,0.308,1.224,0.459,1.861,0.459c0.83,0,1.655-0.258,2.352-0.764c1.232-0.895,1.849-2.412,1.591-3.913 l-2.749-16.03l11.646-11.353c1.09-1.063,1.483-2.652,1.012-4.1c-0.471-1.448-1.722-2.503-3.229-2.723l-16.095-2.339l-7.198-14.585 c-0.674-1.365-2.064-2.229-3.587-2.229s-2.913,0.864-3.587,2.23l-7.198,14.584l-16.095,2.339c-1.507,0.219-2.758,1.274-3.229,2.723 c-0.471,1.448-0.078,3.038,1.012,4.1L107.538,116.779z M117.435,103.879c1.303-0.189,2.429-1.008,3.012-2.188l4.542-9.203 l4.542,9.203c0.583,1.18,1.709,1.999,3.012,2.188l10.156,1.476l-7.349,7.163c-0.943,0.919-1.373,2.243-1.15,3.541l1.734,10.115 l-9.084-4.775c-0.583-0.306-1.222-0.459-1.861-0.459s-1.279,0.153-1.861,0.459l-9.083,4.775l1.735-10.115 c0.223-1.298-0.208-2.622-1.15-3.541l-7.349-7.163L117.435,103.879z">
				</path>
				<path d="M331.878,101.326c-0.47,1.448-0.077,3.038,1.013,4.1l11.647,11.353l-2.75,16.03c-0.258,1.5,0.359,3.017,1.591,3.912 c1.232,0.896,2.866,1.012,4.213,0.305l14.396-7.568l14.396,7.568c0.585,0.308,1.225,0.459,1.861,0.459 c0.829,0,1.654-0.258,2.352-0.764c1.231-0.895,1.849-2.412,1.591-3.913l-2.749-16.03l11.646-11.353 c1.091-1.063,1.482-2.652,1.013-4.1c-0.471-1.448-1.723-2.504-3.229-2.723l-16.096-2.339l-7.197-14.584 c-0.674-1.366-2.064-2.23-3.587-2.23s-2.913,0.864-3.587,2.229l-7.198,14.585l-16.096,2.339 C333.601,98.823,332.349,99.878,331.878,101.326z M354.435,103.879c1.303-0.189,2.429-1.008,3.012-2.188l4.542-9.203l4.541,9.202 c0.583,1.181,1.709,1.999,3.012,2.188l10.156,1.476l-7.349,7.163c-0.942,0.919-1.373,2.243-1.15,3.541l1.734,10.115l-9.083-4.775 c-0.583-0.306-1.222-0.459-1.861-0.459s-1.278,0.153-1.861,0.459l-9.084,4.775l1.735-10.115c0.223-1.298-0.208-2.622-1.15-3.541 l-7.349-7.163L354.435,103.879z">
				</path>
			</g>
		</pattern>
	</defs>
	<rect width="100%" height="100%" fill="url(#tattooPattern)" />
</svg>
